<?xml version="1.0" encoding="UTF-8"?>
<svg version="1.1" xmlns="http://www.w3.org/2000/svg" width="1024" height="1024">
<path d="M0 0 C337.92 0 675.84 0 1024 0 C1024 337.92 1024 675.84 1024 1024 C686.08 1024 348.16 1024 0 1024 C0 686.08 0 348.16 0 0 Z " fill="#F3F3F3" transform="translate(0,0)"/>
<path d="M0 0 C1.01209288 -0.00538554 2.02418576 -0.01077108 3.06694812 -0.01631981 C6.43291665 -0.03054145 9.79848869 -0.02350986 13.16447449 -0.01637268 C15.58817865 -0.02207931 18.01188013 -0.0290447 20.43557739 -0.03717041 C26.32077966 -0.0532276 32.20588323 -0.05520863 38.09109572 -0.04995751 C42.87860938 -0.04590477 47.66609158 -0.04737242 52.45360374 -0.05270576 C53.13678504 -0.05345419 53.81996633 -0.05420261 54.52385008 -0.05497371 C55.91205624 -0.0565053 57.30026239 -0.05804365 58.68846854 -0.05958868 C71.68807669 -0.0732962 84.68762456 -0.06788869 97.68723132 -0.05640347 C109.55688235 -0.04647624 121.42637737 -0.05940598 133.29600433 -0.08333766 C145.5084439 -0.10777336 157.72081094 -0.11732537 169.93327445 -0.11068493 C176.77971825 -0.10720219 183.62604221 -0.1093618 190.47246742 -0.12693596 C196.91334469 -0.14326514 203.35399824 -0.13840689 209.79487038 -0.11963081 C212.15181422 -0.11595532 214.50878024 -0.11902286 216.86570358 -0.1295166 C232.98225301 -0.19576537 246.1979325 0.1957093 259.46989441 10.38768005 C260.33614441 10.96518005 261.20239441 11.54268005 262.09489441 12.13768005 C270.3837766 19.99030529 276.93212314 31.59276266 277.72437 43.07626724 C277.73651304 44.41840116 277.73800511 45.76066061 277.73059082 47.10282898 C277.73441637 47.84833881 277.73824191 48.59384864 277.74218339 49.36194968 C277.75244763 51.84358135 277.74853381 54.32497879 277.74455261 56.80662537 C277.74890282 58.59274508 277.754087 60.37886293 277.76004028 62.16497803 C277.77341057 67.00607789 277.77401098 71.84709958 277.77147698 76.6882143 C277.7704056 80.73613477 277.77529509 84.78403953 277.7800824 88.83195662 C277.7911715 98.38716419 277.79161882 107.94233245 277.78556824 117.49754333 C277.77953276 127.33763534 277.79183003 137.17758421 277.81313831 147.0176518 C277.83078564 155.47989982 277.83675059 163.94210242 277.83350056 172.40436816 C277.83169203 177.4522025 277.83428057 182.49993479 277.8482151 187.54775238 C277.86083929 192.29860502 277.85880608 197.04923562 277.84580421 201.80008507 C277.84344859 203.53703323 277.8461365 205.27399723 277.85442734 207.0109272 C277.93263804 224.67971607 274.81729577 238.72678748 262.25895691 251.84080505 C249.29842889 263.67590907 233.35105338 266.02209853 216.4818573 265.80662537 C214.9458507 265.80224876 213.40983773 265.79976845 211.87382507 265.79901123 C208.5999639 265.79407176 205.3264661 265.7773142 202.05270576 265.75127411 C196.86988202 265.7114487 191.68738014 265.70701582 186.50442505 265.7084198 C171.77844508 265.70715592 157.05281289 265.65916465 142.32707214 265.5766449 C134.16818323 265.53123448 126.00972923 265.51460174 117.8507213 265.52862048 C112.70318533 265.53573854 107.55749816 265.50720094 102.41027558 265.45170546 C99.20841805 265.42556136 96.00727573 265.43292925 92.80538177 265.44959068 C91.32673215 265.45061831 89.84799754 265.43803738 88.36960411 265.41049385 C80.23076389 265.12420865 80.23076389 265.12420865 72.90421867 268.10700226 C70.9016785 270.10157637 69.20732636 272.16332206 67.46989441 274.38768005 C66.15929853 275.59545903 64.82590784 276.77941068 63.46208191 277.92674255 C59.39765754 281.42782064 55.49123945 285.07650932 51.59489441 288.76268005 C46.44261306 293.61569324 41.26135151 298.42385783 35.97380066 303.12986755 C34.02436959 304.88770087 32.09921463 306.66265614 30.18473816 308.45799255 C29.61070251 308.99464539 29.03666687 309.53129822 28.44523621 310.08421326 C27.33008149 311.1286747 26.21803587 312.17647006 25.10978699 313.22825623 C15.75412882 321.97551142 15.75412882 321.97551142 10.40739441 321.88768005 C6.07739752 321.33783918 4.47035047 320.47905903 1.46989441 317.38768005 C0.23908932 314.92606988 0.34945464 313.32271012 0.35636902 310.57078552 C0.35644455 309.56989899 0.35652008 308.56901245 0.3565979 307.53779602 C0.36175919 306.45442963 0.36692047 305.37106323 0.37223816 304.25486755 C0.37365311 303.1478952 0.37506805 302.04092285 0.37652588 300.90040588 C0.38213669 297.35447012 0.39469104 293.80859682 0.40739441 290.26268005 C0.41240802 287.86294138 0.41697116 285.46320172 0.42106628 283.0634613 C0.43210963 277.1715128 0.44885831 271.27960089 0.46989441 265.38768005 C-0.13855316 265.39497635 -0.74700073 265.40227264 -1.37388611 265.40979004 C-2.17712311 265.41546494 -2.98036011 265.42113983 -3.80793762 265.42698669 C-4.60201019 265.43428299 -5.39608276 265.44157928 -6.21421814 265.44909668 C-17.97739148 265.13714093 -28.77583777 258.93133262 -37.28010559 251.20018005 C-49.56216582 237.97334596 -50.98440195 222.67812593 -50.93415833 205.5087738 C-50.93987154 203.73338901 -50.94683945 201.95800788 -50.95495605 200.18263245 C-50.97279552 195.39338023 -50.97173678 190.60431215 -50.96601367 185.81503677 C-50.96290907 181.80423272 -50.9690282 177.79346339 -50.97505242 173.7826643 C-50.98906517 164.31601217 -50.98756289 154.84945036 -50.97615051 145.38279724 C-50.96466657 135.64197934 -50.97875708 125.90143668 -51.00554699 116.16065502 C-51.02774946 107.77131567 -51.03433131 99.38206244 -51.02847058 90.99269581 C-51.02511139 85.99350192 -51.02744701 80.99448451 -51.0447216 75.99531555 C-51.06026187 71.2935746 -51.05615714 66.5922397 -51.03741646 61.89051437 C-51.03375041 60.17333424 -51.03678059 58.45612353 -51.04730225 56.73897171 C-51.14485165 39.49134815 -47.09577241 25.5465858 -35.11604309 12.7509613 C-25.10667152 3.60342384 -13.31193619 -0.08630945 0 0 Z " fill="#2082FD" transform="translate(359.5301055908203,251.61231994628906)"/>
<path d="M0 0 C5.33197832 1.88369118 8.28190845 5.08652681 11 10 C12.03742311 13.11226932 12.13328222 15.28131057 12.14717102 18.54594421 C12.15432632 19.69966019 12.16148163 20.85337616 12.16885376 22.04205322 C12.17154266 23.30910095 12.17423157 24.57614868 12.17700195 25.8815918 C12.18326812 27.22864456 12.18991505 28.5756956 12.19691467 29.92274475 C12.21794275 34.34822387 12.22831722 38.77370328 12.23828125 43.19921875 C12.24232955 44.72422618 12.24644649 46.24923343 12.25063133 47.77424049 C12.2696818 54.94073201 12.28391203 62.10721325 12.2922433 69.27372521 C12.30200968 77.53770016 12.32831392 85.80140684 12.36874419 94.06528729 C12.398942 100.45777888 12.41371572 106.85019373 12.41702431 113.24275523 C12.41937102 117.0582306 12.42828131 120.87341933 12.45348549 124.68881798 C12.47683514 128.28155769 12.48097218 131.87382345 12.47072411 135.46661949 C12.46999584 137.40455571 12.48903947 139.34246823 12.50878906 141.28030396 C12.46278324 149.01758892 11.84000681 155.03367718 6.21875 160.83984375 C5.6515625 161.20207031 5.084375 161.56429687 4.5 161.9375 C3.64921875 162.50791016 3.64921875 162.50791016 2.78125 163.08984375 C-1.36238121 165.20709391 -5.40420141 165.4447547 -10 165 C-18.3035514 161.64600889 -25.89440128 156.5538157 -33.5 151.875 C-35.36351248 150.73197568 -37.22740787 149.589578 -39.09138489 148.4473114 C-40.32461489 147.6914307 -41.55751797 146.93501636 -42.79008484 146.17805481 C-46.36493257 143.98632746 -49.96003022 141.83543448 -53.58203125 139.72265625 C-63.73860341 133.77176896 -72.00691255 128.67691035 -76 117 C-76.39440918 113.63723755 -76.39440918 113.63723755 -76.41992188 110.10595703 C-76.42839142 109.45614868 -76.43686096 108.80634033 -76.44558716 108.13684082 C-76.46879225 106.01029334 -76.46998332 103.88447646 -76.46875 101.7578125 C-76.47586193 100.26479816 -76.48356241 98.77178651 -76.49182129 97.27877808 C-76.50522847 94.15696609 -76.50685211 91.03540684 -76.50097656 87.91357422 C-76.49508587 83.93349487 -76.52566169 79.95463764 -76.56609344 75.97479439 C-76.59207579 72.89303168 -76.59483839 69.81155911 -76.59120178 66.729702 C-76.59288342 65.26341559 -76.60243298 63.79711438 -76.62034607 62.33093643 C-76.72850521 52.3841379 -75.54424811 45.58543558 -69.17578125 37.7578125 C-62.2342045 31.67483749 -54.35878298 27.17870204 -46.45556641 22.47949219 C-42.36377748 20.01416698 -38.34215695 17.44010793 -34.3125 14.875 C-32.72689798 13.87707092 -31.14096523 12.87966714 -29.5546875 11.8828125 C-26.61999484 10.03577714 -23.71242155 8.15508938 -20.8203125 6.2421875 C-8.00958282 -2.08249153 -8.00958282 -2.08249153 0 0 Z " fill="#196BFD" transform="translate(727,305)"/>
<path d="M0 0 C4.57248258 2.03213144 8.69350584 4.7118025 12.875 7.4375 C14.10397267 8.21461063 15.334476 8.98930525 16.56640625 9.76171875 C19.12026708 11.36557896 21.66728225 12.97954995 24.20996094 14.60107422 C29.51211771 17.97134163 34.8914194 21.2126249 40.27142334 24.45654297 C43.16908505 26.20571936 46.06071594 27.96481314 48.953125 29.72265625 C54.39109209 33.02512594 59.83217789 36.32242996 65.27441406 39.61785889 C68.28228307 41.43983365 71.28851758 43.26440045 74.29101562 45.09521484 C79.23371323 48.1090721 84.17764146 51.11514389 89.171875 54.04296875 C90.61458432 54.90364418 92.05729275 55.7643211 93.5 56.625 C94.12229492 56.97812256 94.74458984 57.33124512 95.38574219 57.69506836 C99.96047113 60.45782276 101.80419477 63.25942295 104 68 C104.08716685 72.96851037 102.87281063 75.70039533 99.63989258 79.42260742 C96.43728177 82.50315952 92.6198615 84.62414072 88.8125 86.875 C86.92178198 88.01937757 85.03116146 89.16391625 83.140625 90.30859375 C82.14224609 90.90784668 81.14386719 91.50709961 80.11523438 92.12451172 C74.7421355 95.35931936 69.40345968 98.64999323 64.0625 101.9375 C62.96349365 102.61272705 61.8644873 103.2879541 60.73217773 103.98364258 C52.85005865 108.83484736 45.0258966 113.77058075 37.22729492 118.75463867 C30.13146595 123.28777797 23.01105071 127.78044319 15.875 132.25 C14.84874512 132.89461182 13.82249023 133.53922363 12.76513672 134.20336914 C11.80881348 134.80141357 10.85249023 135.39945801 9.8671875 136.015625 C8.60044189 136.80888184 8.60044189 136.80888184 7.30810547 137.61816406 C2.4859982 140.50510368 -1.27018754 141.89597454 -7 141 C-11.38011859 138.72570765 -14.46092543 136.22582824 -17 132 C-17.60403533 128.05191847 -17.54609692 124.13219288 -17.51757812 120.14477539 C-17.5245874 118.94424026 -17.53159668 117.74370514 -17.53881836 116.50679016 C-17.5533917 113.22144548 -17.54999724 109.93674704 -17.53730202 106.65141225 C-17.52715561 103.20822269 -17.53657245 99.76507546 -17.54284668 96.32188416 C-17.55011934 90.53913657 -17.54054662 84.75659347 -17.52148438 78.97387695 C-17.49972641 72.29644746 -17.50676029 65.61950674 -17.52879 58.94208914 C-17.54696736 53.20177224 -17.54949068 47.46160213 -17.53903532 41.72126573 C-17.5328118 38.29604521 -17.53193276 34.87105408 -17.54518127 31.44584846 C-17.55533995 27.62510276 -17.53985248 23.805295 -17.51757812 19.98461914 C-17.52567505 18.85455444 -17.53377197 17.72448975 -17.54211426 16.56018066 C-17.47573379 10.41385309 -17.19952213 6.62979177 -13 2 C-8.62488802 -0.91674132 -5.13094756 -0.92673124 0 0 Z " fill="#F3F3F3" transform="translate(434,316)"/>
<path d="M0 0 C7.92 0 15.84 0 24 0 C26.6688887 8.50806059 29.1319402 17.02404675 31.34765625 25.66015625 C31.64562607 26.81188828 31.94359589 27.9636203 32.25059509 29.1502533 C33.19068859 32.78695469 34.12661297 36.42471412 35.0625 40.0625 C35.69309601 42.50332327 36.32395339 44.94407902 36.95507812 47.38476562 C40.10725634 59.58858926 40.10725634 59.58858926 41.21585083 63.94387817 C41.75480671 66.04439027 42.30584064 68.14182876 42.86691284 70.23654175 C43.14213776 71.28310944 43.41736267 72.32967712 43.70092773 73.40795898 C43.95035629 74.33905991 44.19978485 75.27016083 44.45677185 76.22947693 C45.04207998 79.21461251 45.09295413 81.96553067 45 85 C45.66 85 46.32 85 47 85 C47.1010051 84.43266144 47.20201019 83.86532288 47.30607605 83.28079224 C48.68501095 75.9461294 50.65457913 68.84181245 52.73828125 61.6796875 C53.10092575 60.4222171 53.46357025 59.1647467 53.83720398 57.86917114 C54.60209672 55.21771199 55.36966449 52.56704818 56.1394043 49.91699219 C57.11153042 46.5699391 58.07858176 43.22144788 59.04387093 39.87241745 C62.88875033 26.53632993 66.78039967 13.22309882 71 0 C78.26 0 85.52 0 93 0 C97.73631968 14.67969417 102.00581655 29.4492051 106.125 44.3125 C107.03937794 47.60004486 107.95467793 50.88733156 108.87030029 54.17453003 C109.45507423 56.27557 110.0387996 58.37690214 110.62139893 60.47854614 C111.82964164 64.83217862 113.04398164 69.18258373 114.31933594 73.51708984 C114.68575195 74.76312988 115.05216797 76.00916992 115.4296875 77.29296875 C115.73890137 78.32317139 116.04811523 79.35337402 116.36669922 80.41479492 C117 83 117 83 117 87 C117.66 87 118.32 87 119 87 C119.0928125 85.12634766 119.0928125 85.12634766 119.1875 83.21484375 C120.07101186 74.46408824 122.714991 66.02812815 125 57.5625 C125.49478634 55.70678 125.98867227 53.85081971 126.48168945 51.99462891 C127.23668329 49.15215838 127.99212346 46.30981868 128.75032043 43.46820068 C131.28811844 33.95213332 133.74468959 24.41581392 136.1875 14.875 C136.57739881 13.35487981 136.96737051 11.83477832 137.35742188 10.31469727 C138.23953083 6.87678274 139.11975377 3.43839392 140 0 C147.92 0 155.84 0 164 0 C161.74966188 11.2516906 161.74966188 11.2516906 160.52636719 15.7578125 C160.25088547 16.77861908 159.97540375 17.79942566 159.6915741 18.85116577 C159.39632339 19.93153107 159.10107269 21.01189636 158.796875 22.125 C158.48216751 23.28633453 158.16746002 24.44766907 157.84321594 25.64419556 C156.99197801 28.78129038 156.13762203 31.91751183 155.28133011 35.05323029 C154.74818171 37.00666215 154.21617784 38.96040219 153.68453979 40.91424561 C148.53583823 59.83405266 143.32965749 78.7378098 138.0625 97.625 C137.60889099 99.25695312 137.60889099 99.25695312 137.14611816 100.921875 C136.30024621 103.96196267 135.44979684 107.00072686 134.59765625 110.0390625 C134.3473616 110.94032867 134.09706696 111.84159485 133.83918762 112.77017212 C132.11500631 118.88499369 132.11500631 118.88499369 131 120 C129.14630389 120.08737645 127.28932459 120.10698153 125.43359375 120.09765625 C124.30888672 120.09443359 123.18417969 120.09121094 122.02539062 120.08789062 C120.84138672 120.07951172 119.65738281 120.07113281 118.4375 120.0625 C117.24962891 120.05798828 116.06175781 120.05347656 114.83789062 120.04882812 C111.89187774 120.03699675 108.94596319 120.02051287 106 120 C102.96127048 112.44098639 100.820642 104.64158553 98.62109375 96.80859375 C98.20448812 95.33455566 97.78757705 93.86060386 97.37037659 92.38673401 C96.27821729 88.52534813 95.19011355 84.66283118 94.10290527 80.80004883 C92.9987473 76.87969046 91.89084634 72.96039043 90.78320312 69.04101562 C88.83295463 62.13871334 86.88603699 55.23547923 84.94163513 48.33152771 C83.96770904 44.88575382 82.98529358 41.44253789 82 38 C79.85378906 45.35405651 77.70806137 52.70825396 75.5625 60.0625 C75.08654892 61.69377335 75.08654892 61.69377335 74.60098267 63.35800171 C71.42858361 74.2317395 68.2563045 85.10549886 65.1015625 95.984375 C64.88996994 96.71397934 64.67837738 97.44358368 64.46037292 98.19529724 C63.4986993 101.51215131 62.53800906 104.8292852 61.57836914 108.14672852 C61.24699951 109.29069092 60.91562988 110.43465332 60.57421875 111.61328125 C60.29151123 112.59079346 60.00880371 113.56830566 59.7175293 114.57543945 C59.17930361 116.39412585 58.59977555 118.20067335 58 120 C49.75 120 41.5 120 33 120 C31.20672921 115.21794455 29.58632201 110.85440272 28.28930664 105.9909668 C27.98750992 104.86760925 27.6857132 103.74425171 27.37477112 102.58685303 C27.05644821 101.38643372 26.73812531 100.1860144 26.41015625 98.94921875 C25.88763859 97.00006841 25.36511729 95.05091904 24.84243679 93.10181236 C24.29075421 91.04187412 23.74092686 88.98144897 23.19165039 86.92086792 C21.29436843 79.80419508 19.38372286 72.69110629 17.47265625 65.578125 C17.28232441 64.86923063 17.09199257 64.16033627 16.8958931 63.42996025 C12.87553158 48.46183132 8.72228675 33.53211334 4.49243164 18.62182617 C4.26004288 17.79841736 4.02765411 16.97500854 3.78822327 16.12664795 C3.36457185 14.62596772 2.93834552 13.12601043 2.5087738 11.62701416 C1.4099532 7.72997564 0.67042278 4.02253668 0 0 Z " fill="#31373F" transform="translate(147,624)"/>
<path d="M0 0 C8.58 0 17.16 0 26 0 C27.03898438 2.08957031 28.07796875 4.17914062 29.1484375 6.33203125 C38.66318386 25.46707341 38.66318386 25.46707341 48.5324707 44.4206543 C52.10619014 51.13997944 55.50162379 57.94460791 58.86669922 64.77050781 C59.4605542 65.97078613 59.4605542 65.97078613 60.06640625 67.1953125 C60.41646729 67.90703613 60.76652832 68.61875977 61.12719727 69.35205078 C61.89054752 70.98852192 61.89054752 70.98852192 63 72 C74.88 48.24 86.76 24.48 99 0 C107.58 0 116.16 0 125 0 C125 39.6 125 79.2 125 120 C118.07 120 111.14 120 104 120 C102.0590849 118.0590849 102.81569484 114.37656983 102.79467773 111.72631836 C102.78477814 110.96539383 102.77487854 110.2044693 102.76467896 109.42048645 C102.73297376 106.8936377 102.7082711 104.36677012 102.68359375 101.83984375 C102.66303199 100.09248859 102.64203574 98.34513849 102.62062073 96.59779358 C102.56531959 91.98973682 102.51594592 87.38163459 102.46777344 82.77349854 C102.40880476 77.24934645 102.34253274 71.72527783 102.27747345 66.20119476 C102.1793628 57.8008473 102.09057606 49.40044732 102 41 C91.77 61.46 81.54 81.92 71 103 C65.72 103 60.44 103 55 103 C43.55679804 82.71855262 33.35710266 61.85416617 23 41 C22.67 67.07 22.34 93.14 22 120 C14.74 120 7.48 120 0 120 C0 80.4 0 40.8 0 0 Z " fill="#323840" transform="translate(508,624)"/>
<path d="M0 0 C7.26 0 14.52 0 22 0 C22.33 15.18 22.66 30.36 23 46 C25.97 43.36 28.94 40.72 32 38 C40.98827618 32.20111214 52.90239754 32.52278964 63.171875 34.66015625 C73.93786621 38.52187049 80.75176713 47.29957754 85.8515625 57.109375 C88.67999015 64.22854663 89.36314529 71.266462 89.3125 78.875 C89.30512817 80.19153564 89.30512817 80.19153564 89.29760742 81.53466797 C89.17956748 88.0734754 88.47951587 93.89657633 86 100 C85.67128906 100.845625 85.34257812 101.69125 85.00390625 102.5625 C80.58024101 112.60376088 73.53273852 118.94743334 63.48046875 123.125 C54.4922408 126.29565049 42.01446653 127.05621339 33.25 122.875 C29.22734486 120.44609577 26.10292443 117.51120396 23 114 C22.67 117.3 22.34 120.6 22 124 C14.41 124 6.82 124 -1 124 C-1.02254717 107.98006149 -1.04097926 91.96013646 -1.05181217 75.9401865 C-1.05697509 68.5023549 -1.06401771 61.06453383 -1.07543945 53.62670898 C-1.08538641 47.14618658 -1.09185346 40.66567181 -1.09408849 34.18514198 C-1.09539558 30.75169458 -1.0984813 27.318269 -1.10573006 23.88482857 C-1.11374416 20.05806179 -1.11399113 16.23131665 -1.11352539 12.40454102 C-1.11712067 11.25799545 -1.12071594 10.11144989 -1.12442017 8.93016052 C-1.1230455 7.89384491 -1.12167084 6.8575293 -1.12025452 5.78981018 C-1.12117631 4.88368768 -1.1220981 3.97756517 -1.12304783 3.04398441 C-1 1 -1 1 0 0 Z " fill="#31373F" transform="translate(405,620)"/>
<path d="M0 0 C9.30849249 7.74744096 13.31976603 16.61918112 16.625 28.1875 C16.625 33.7975 16.625 39.4075 16.625 45.1875 C-3.505 45.1875 -23.635 45.1875 -44.375 45.1875 C-42.81072297 55.54766529 -42.81072297 55.54766529 -36.69921875 63.46875 C-30.53210446 67.16637741 -24.30802094 68.34126365 -17.25390625 66.69140625 C-12.47145914 65.09123018 -9.9129759 62.82109687 -6.375 59.1875 C-1.87038079 57.68872045 2.34688226 58.46450898 6.9375 59.125 C8.04834961 59.27485352 8.04834961 59.27485352 9.18164062 59.42773438 C10.99709637 59.67369935 12.81120071 59.92960374 14.625 60.1875 C13.45970165 67.8974391 8.55935714 74.13051555 2.53515625 78.91015625 C-8.43835761 86.24827288 -21.99038894 87.96844323 -34.8125 85.53515625 C-45.02101934 82.7302211 -54.56548216 77.28852936 -60.375 68.1875 C-67.85403451 53.81015602 -70.72777828 37.21660487 -65.75 21.3125 C-61.13461532 10.15460511 -53.89601125 1.21862843 -42.82421875 -3.8125 C-29.12551348 -9.40559179 -12.28334764 -8.6446956 0 0 Z " fill="#31363F" transform="translate(806.375,659.8125)"/>
<path d="M0 0 C8.92729111 6.2946684 15.06214935 15.2189675 17.94140625 25.76953125 C18.91362149 32.66342113 18.62890625 39.68242524 18.62890625 46.64453125 C-1.50109375 46.64453125 -21.63109375 46.64453125 -42.37109375 46.64453125 C-40.71814909 57.59084862 -40.71814909 57.59084862 -34.49609375 65.39453125 C-29.03930285 68.60440825 -23.5904682 69.47583378 -17.37109375 68.64453125 C-12.66005523 67.20634292 -9.19020706 65.46483686 -5.6875 61.95703125 C-3.01632985 59.67041494 -1.3396334 59.34894638 2.15234375 59.59375 C3.77362597 59.81123908 5.39120023 60.05810272 7.00390625 60.33203125 C8.25107422 60.50895508 8.25107422 60.50895508 9.5234375 60.68945312 C11.5624056 60.98240831 13.5963405 61.31003144 15.62890625 61.64453125 C16.62890625 64.64453125 16.62890625 64.64453125 15.58984375 66.73046875 C8.94093387 76.32717119 1.39005639 84.09135695 -10.37109375 86.64453125 C-13.97985243 86.94132301 -17.56410516 86.96936761 -21.18359375 86.95703125 C-22.58448242 86.98120117 -22.58448242 86.98120117 -24.01367188 87.00585938 C-36.15309617 87.01428368 -45.26170115 83.2561108 -54.15625 74.984375 C-64.49827479 63.79594409 -65.96540573 50.39427537 -65.6796875 35.86328125 C-65.11717136 22.88573041 -59.91172615 12.5586835 -50.43359375 3.76953125 C-36.40846321 -7.73757393 -15.72213181 -8.98777552 0 0 Z " fill="#30363E" transform="translate(711.37109375,658.35546875)"/>
<path d="M0 0 C7.97434752 5.84231711 12.88052724 15.17054647 15.25 24.6484375 C15.25 31.2484375 15.25 37.8484375 15.25 44.6484375 C-4.88 44.6484375 -25.01 44.6484375 -45.75 44.6484375 C-42.93912097 56.69365139 -42.93912097 56.69365139 -34.96875 64.6640625 C-29.22730816 67.17024743 -23.37439133 67.74817125 -17.35546875 65.921875 C-13.54578927 64.3676774 -11.23095207 63.2578206 -8.62890625 59.9609375 C-5.39496195 57.3632509 -4.82704964 57.34642212 -0.88671875 57.59765625 C0.93322579 57.8160496 2.74991955 58.0630897 4.5625 58.3359375 C5.49384766 58.45388672 6.42519531 58.57183594 7.38476562 58.69335938 C9.67758855 58.98731103 11.96396407 59.30624699 14.25 59.6484375 C12.98611633 67.96421755 6.90238856 73.23805753 0.984375 78.7890625 C-6.96303974 84.19330452 -14.66097799 85.34388944 -24.125 85.2109375 C-25.23045166 85.19925537 -26.33590332 85.18757324 -27.47485352 85.17553711 C-39.69922184 84.84387871 -47.63149859 81.75640276 -56.55859375 73.1015625 C-65.16601933 63.46615561 -68.32784673 52.57492957 -68.1875 39.8359375 C-68.18065186 38.8754248 -68.17380371 37.91491211 -68.16674805 36.92529297 C-67.89101564 24.6670769 -64.62986697 14.32288108 -56.4375 5.0234375 C-55.550625 4.2396875 -54.66375 3.4559375 -53.75 2.6484375 C-53.19828125 2.15472656 -52.6465625 1.66101563 -52.078125 1.15234375 C-37.05465645 -11.29478618 -15.81703593 -10.13278865 0 0 Z " fill="#30363E" transform="translate(376.75,660.3515625)"/>
<path d="M0 0 C7.26 0 14.52 0 22 0 C22 7.26 22 14.52 22 22 C28.93 22 35.86 22 43 22 C43 27.94 43 33.88 43 40 C36.07 40 29.14 40 22 40 C22.02808071 46.46111532 22.07110674 52.91850851 22.15258789 59.37866211 C22.17576738 61.57552662 22.19016347 63.77250225 22.19555664 65.96948242 C22.20484627 69.13009891 22.24583877 72.28896776 22.29296875 75.44921875 C22.2890361 76.42960617 22.28510345 77.40999359 22.28105164 78.42008972 C22.37975481 83.04583024 22.49576537 85.31252436 25.29492188 89.12890625 C27.89818335 90.92957375 28.90916283 91.61344867 31.98828125 91.48828125 C33.04692383 91.46411133 33.04692383 91.46411133 34.12695312 91.43945312 C34.84818359 91.39755859 35.56941406 91.35566406 36.3125 91.3125 C37.05306641 91.28994141 37.79363281 91.26738281 38.55664062 91.24414062 C40.37197357 91.1855815 42.18625681 91.09590886 44 91 C44.02888514 94.14581423 44.04675923 97.29159469 44.0625 100.4375 C44.07087891 101.33533203 44.07925781 102.23316406 44.08789062 103.15820312 C44.09111328 104.01220703 44.09433594 104.86621094 44.09765625 105.74609375 C44.10289307 106.53685303 44.10812988 107.3276123 44.11352539 108.14233398 C44 110 44 110 43 111 C39.17519623 111.31143112 35.33590006 111.27865382 31.5 111.3125 C29.90285156 111.35600586 29.90285156 111.35600586 28.2734375 111.40039062 C19.60805557 111.46958594 13.86214374 109.55047228 6.6875 104.8125 C-0.10634833 97.70265873 -0.56615736 89.98926577 -0.390625 80.52734375 C-0.38213531 78.78185997 -0.38213531 78.78185997 -0.37347412 77.00111389 C-0.35122266 73.31281034 -0.30104507 69.62550609 -0.25 65.9375 C-0.22992059 63.42514431 -0.21167235 60.91277328 -0.1953125 58.40039062 C-0.15139433 52.26654661 -0.082443 46.13344228 0 40 C-4.62 40 -9.24 40 -14 40 C-14 34.06 -14 28.12 -14 22 C-9.38 22 -4.76 22 0 22 C0 14.74 0 7.48 0 0 Z " fill="#31373F" transform="translate(841,633)"/>
<path d="M0 0 C4.67314163 3.44545188 7.48911464 8.25250017 9.3046875 13.69921875 C9.6104474 17.06877024 9.62844818 20.44242368 9.6796875 23.82421875 C9.73576172 25.19320312 9.73576172 25.19320312 9.79296875 26.58984375 C9.88917879 34.09422698 7.90665018 39.63202337 2.89648438 45.28930664 C-2.099064 49.87825995 -7.995917 51.15522035 -14.65234375 50.94921875 C-20.80025671 50.19689288 -26.71409537 47.54028455 -30.6953125 42.69921875 C-36.29886778 34.01544831 -36.07297084 22.46696532 -34.0703125 12.62890625 C-31.92765098 6.37309985 -28.14876574 2.34548476 -22.6953125 -1.30078125 C-14.96510621 -5.08364816 -7.37782912 -4.01068904 0 0 Z " fill="#F2F2F3" transform="translate(461.6953125,675.30078125)"/>
<path d="M0 0 C5.76060976 2.98698284 8.9720533 5.62248591 11.375 11.75 C11.87 15.215 11.87 15.215 12.375 18.75 C-0.495 18.75 -13.365 18.75 -26.625 18.75 C-22.38913725 4.6304575 -22.38913725 4.6304575 -14.75 0.375 C-9.48964274 -1.98377183 -5.45731609 -1.88183314 0 0 Z " fill="#F2F2F2" transform="translate(695.625,671.25)"/>
<path d="M0 0 C5.52747896 2.57313676 8.94943813 6.42612343 11.25 12.0625 C12 15 12 15 12 19 C-0.87 19 -13.74 19 -27 19 C-23.1005386 6.00179533 -23.1005386 6.00179533 -16.76953125 1.3671875 C-11.51681381 -1.22583239 -5.71079173 -0.60396152 0 0 Z " fill="#F3F3F3" transform="translate(789,671)"/>
<path d="M0 0 C-0.33 0.66 -0.66 1.32 -1 2 C-3.90625 2.44921875 -3.90625 2.44921875 -7.5 2.6875 C-8.6859375 2.77386719 -9.871875 2.86023438 -11.09375 2.94921875 C-12.0528125 2.96597656 -13.011875 2.98273438 -14 3 C-14.495 2.505 -14.495 2.505 -15 2 C-19.5846878 1.28364253 -22.90757574 3.15594166 -26.9140625 5.125 C-29 6 -29 6 -32 6 C-32.2475 6.804375 -32.495 7.60875 -32.75 8.4375 C-34 11 -34 11 -35.9375 11.6875 C-36.618125 11.790625 -37.29875 11.89375 -38 12 C-40.89611367 13.77524668 -40.89611367 13.77524668 -42.5625 15.625 C-44 17 -44 17 -46 17 C-46.268125 17.94875 -46.53625 18.8975 -46.8125 19.875 C-48 23 -48 23 -51 25 C-51.73606499 28.56769552 -51.73606499 28.56769552 -52 32 C-52.66 32 -53.32 32 -54 32 C-53.67 32.99 -53.34 33.98 -53 35 C-53.66 35 -54.32 35 -55 35 C-54.98839844 36.12277344 -54.97679687 37.24554688 -54.96484375 38.40234375 C-54.9554542 39.91406082 -54.94635527 41.42577971 -54.9375 42.9375 C-54.92912109 43.67291016 -54.92074219 44.40832031 -54.91210938 45.16601562 C-54.90888672 45.90400391 -54.90566406 46.64199219 -54.90234375 47.40234375 C-54.89710693 48.06741943 -54.89187012 48.73249512 -54.88647461 49.41772461 C-55 52 -55 52 -55.4942627 55.65661621 C-56.29177087 62.77191654 -56.17831143 69.92616412 -56.20532227 77.07641602 C-56.21491551 78.69348899 -56.22492641 80.31055954 -56.23532104 81.92762756 C-56.26221959 86.29470828 -56.28331006 90.66179963 -56.30332303 95.0289166 C-56.32527607 99.60132333 -56.35261893 104.17369782 -56.37937927 108.74607849 C-56.42918072 117.39434029 -56.4741658 126.04262011 -56.51740164 134.69091696 C-56.56688164 144.54102001 -56.62175966 154.39109071 -56.67708123 164.24116242 C-56.7907085 184.4940781 -56.89758905 204.7470247 -57 225 C-59.37683559 221.43474662 -59.28585904 218.92451865 -59.26742554 214.81056213 C-59.27195665 214.07325912 -59.27648776 213.3359561 -59.28115618 212.57631058 C-59.29384578 210.09841795 -59.29217685 207.62074385 -59.29052734 205.14282227 C-59.29651012 203.36876644 -59.30331509 201.59471323 -59.31088257 199.82066345 C-59.32858435 194.99372917 -59.33323996 190.16686576 -59.33451414 185.33990216 C-59.33593498 182.32176236 -59.34020349 179.30364061 -59.34550858 176.28550529 C-59.36402904 165.74834931 -59.37217746 155.21124398 -59.37060547 144.67407227 C-59.36940645 134.86699337 -59.39045653 125.06013542 -59.4220928 115.25311238 C-59.44830497 106.82574736 -59.45897056 98.39845421 -59.45769465 89.97104877 C-59.45718608 84.94152792 -59.46281007 79.91220296 -59.48405075 74.88272285 C-59.50351409 70.14418451 -59.50350254 65.40602707 -59.48901749 60.66747475 C-59.48693766 58.93578277 -59.4915806 57.20406647 -59.5037384 55.47241592 C-59.61702572 38.20671765 -55.64332996 24.24185825 -43.5859375 11.36328125 C-39.18147604 7.3380559 -34.36169891 4.56707335 -29 2 C-28.23429687 1.62746094 -27.46859375 1.25492188 -26.6796875 0.87109375 C-18.27539478 -2.39398861 -8.77839901 -0.74805659 0 0 Z " fill="#188BFD" transform="translate(368,253)"/>
<path d="M0 0 C4.38862935 2.27488347 6.77581536 4.89167575 8.99609375 9.25 C9.65609375 12.22 10.31609375 15.19 10.99609375 18.25 C-1.87390625 18.25 -14.74390625 18.25 -28.00390625 18.25 C-23.4048342 4.45278384 -23.4048342 4.45278384 -17.44140625 0.9375 C-11.3521227 -2.05178465 -6.40988624 -2.39902175 0 0 Z " fill="#F2F2F3" transform="translate(360.00390625,671.75)"/>
<path d="M0 0 C0.66 0 1.32 0 2 0 C2.07016385 23.01831756 2.12302431 46.03661742 2.15543652 69.05502033 C2.17088786 79.74350376 2.19194422 90.43192063 2.22631836 101.12036133 C2.2562738 110.43929487 2.27558759 119.75818019 2.28226548 129.07716054 C2.28616733 134.00886613 2.29530104 138.94043382 2.31719017 143.87209511 C2.33765245 148.52023396 2.34381421 153.16817895 2.33932304 157.81635857 C2.3401439 159.51622193 2.34605125 161.21609222 2.35761642 162.91591644 C2.47580676 181.19400429 2.47580676 181.19400429 -1 189 C-1.66 189.33 -2.32 189.66 -3 190 C-2.125 182.125 -2.125 182.125 -1 181 C-0.89909377 178.094494 -0.86134926 175.21783217 -0.875 172.3125 C-0.87113281 171.50876953 -0.86726562 170.70503906 -0.86328125 169.87695312 C-0.87051181 165.45546386 -1.24350625 161.36703211 -2 157 C-1.67 156.67 -1.34 156.34 -1 156 C-0.89099342 153.98805453 -0.853092 151.97224673 -0.84178162 149.9573822 C-0.8319928 148.64339951 -0.82220398 147.32941681 -0.81211853 145.97561646 C-0.80621355 144.5057987 -0.80040316 143.03598057 -0.79467773 141.56616211 C-0.78510473 140.02908562 -0.77509501 138.4920118 -0.76467896 136.9549408 C-0.73756111 132.76920008 -0.71658893 128.58344801 -0.69667697 124.39766765 C-0.67485969 120.02807576 -0.64745024 115.65851915 -0.62062073 111.28895569 C-0.57063607 103.0087551 -0.52571874 94.728535 -0.48259836 86.44829613 C-0.43327522 77.02400336 -0.37833889 67.59974598 -0.32291877 58.1754874 C-0.20901014 38.78369109 -0.10219054 19.39186142 0 0 Z " fill="#075DFD" transform="translate(635,296)"/>
<path d="M0 0 C8.58 0 17.16 0 26 0 C28.03049232 3.95364585 30.04969647 7.91236333 32.0625 11.875 C32.64322266 13.00292969 33.22394531 14.13085938 33.82226562 15.29296875 C34.36689453 16.36933594 34.91152344 17.44570313 35.47265625 18.5546875 C36.23461304 20.04718018 36.23461304 20.04718018 37.01196289 21.56982422 C37.33801514 22.37178223 37.66406738 23.17374023 38 24 C37.67 24.66 37.34 25.32 37 26 C35.3673917 22.96235911 33.74530892 19.91921677 32.125 16.875 C31.66480469 16.0190625 31.20460938 15.163125 30.73046875 14.28125 C30.28574219 13.44335938 29.84101562 12.60546875 29.3828125 11.7421875 C28.97434082 10.9776123 28.56586914 10.21303711 28.14501953 9.42529297 C26.86521143 6.71450115 25.94796103 3.84388308 25 1 C17.08 1 9.16 1 1 1 C1 39.61 1 78.22 1 118 C7.27 118 13.54 118 20 118 C20 91.6 20 65.2 20 38 C22.48839325 40.48839325 22.23503088 41.93089662 22.24884033 45.32574463 C22.24164978 46.06661316 22.23445923 46.80748169 22.22705078 47.57080078 C22.22734283 48.35137848 22.22763489 49.13195618 22.22793579 49.93618774 C22.22653968 52.52267478 22.21096542 55.10887564 22.1953125 57.6953125 C22.19158337 59.48607221 22.18873592 61.27683396 22.18673706 63.06759644 C22.17909275 67.78588472 22.15943745 72.50405031 22.1373291 77.22229004 C22.11688782 82.03489522 22.10773903 86.84752019 22.09765625 91.66015625 C22.07619226 101.10683348 22.04100366 110.55338735 22 120 C14.74 120 7.48 120 0 120 C0 80.4 0 40.8 0 0 Z " fill="#0D1219" transform="translate(508,624)"/>
<path d="M0 0 C-6.83210003 5.29620157 -13.68158306 7.8285257 -22 10 C-22.58788551 10.17800235 -23.17577103 10.3560047 -23.78147125 10.53940105 C-26.69187907 11.14364419 -29.44112024 11.12804807 -32.41442871 11.13130188 C-33.05614187 11.13341759 -33.69785502 11.13553331 -34.35901403 11.13771313 C-36.50693803 11.14369945 -38.65480305 11.14271397 -40.80273438 11.1418457 C-42.34361368 11.14487802 -43.8844921 11.14839968 -45.42536926 11.15237427 C-48.74238688 11.16025666 -52.05939376 11.16540563 -55.37641907 11.16866493 C-60.6202422 11.17457734 -65.86399756 11.19111877 -71.10778809 11.21000671 C-72.90311428 11.21634379 -74.69844051 11.22266942 -76.49376678 11.22898388 C-77.84225157 11.2337326 -77.84225157 11.2337326 -79.21797848 11.23857725 C-91.42541779 11.28066155 -103.63282497 11.31364543 -115.84033203 11.32592773 C-124.07635667 11.33429933 -132.31221298 11.35675372 -140.5481534 11.3952834 C-144.90669724 11.41506937 -149.26498929 11.42744015 -153.62358093 11.42244911 C-157.72115081 11.41781382 -161.8182427 11.43154612 -165.91571617 11.45946121 C-167.42015196 11.46639109 -168.92463699 11.46648027 -170.42907143 11.45926094 C-172.4818102 11.45040443 -174.53296168 11.46601024 -176.58557129 11.48774719 C-177.73446083 11.49013555 -178.88335037 11.4925239 -180.06705475 11.49498463 C-183.59710166 12.10281321 -184.77679756 13.26394085 -187 16 C-187.66 15.67 -188.32 15.34 -189 15 C-187.04538571 12.17355722 -185.89032147 10.75757461 -183 9 C-177.92260872 8.09165738 -172.8600984 8.24134644 -167.72314453 8.31884766 C-166.15577764 8.32054113 -164.588406 8.31958808 -163.02104187 8.31619263 C-158.77524582 8.31447339 -154.53046994 8.34971073 -150.28491068 8.39163637 C-145.84468689 8.42918288 -141.40443886 8.43267181 -136.96408081 8.43978882 C-128.55984639 8.45842621 -120.15608112 8.50764806 -111.75205314 8.56788576 C-102.18263404 8.6349855 -92.61319235 8.66794858 -83.04359651 8.69805837 C-63.36213598 8.76074822 -43.68109756 8.86626159 -24 9 C-24 8.34 -24 7.68 -24 7 C-22.85660156 6.73445312 -21.71320313 6.46890625 -20.53515625 6.1953125 C-19.04416709 5.83897547 -17.55328721 5.48218096 -16.0625 5.125 C-15.30775391 4.95097656 -14.55300781 4.77695312 -13.77539062 4.59765625 C-11.83406455 4.12755935 -9.91450456 3.5695703 -8 3 C-7.67 2.34 -7.34 1.68 -7 1 C-2.44155844 -1.22077922 -2.44155844 -1.22077922 0 0 Z " fill="#2667FA" transform="translate(618,506)"/>
<path d="M0 0 C0.33 0 0.66 0 1 0 C1 39.27 1 78.54 1 119 C8.26 119 15.52 119 23 119 C23 92.27 23 65.54 23 38 C25.71843438 41.62457917 26.41789544 42.80884715 27 47 C26.67 47 26.34 47 26 47 C25.98969254 47.89980087 25.97938507 48.79960175 25.96876526 49.72666931 C25.87096659 58.18820786 25.7684778 66.6496736 25.66066074 75.11109066 C25.60539215 79.46164806 25.55196601 83.81221212 25.50268555 88.1628418 C25.45509986 92.3579621 25.40275942 96.55299812 25.34705925 100.74801826 C25.32660934 102.35204545 25.30790071 103.95609577 25.29092598 105.5601635 C25.26694003 107.79922769 25.23687806 110.03813116 25.20532227 112.27709961 C25.18977798 113.55395126 25.1742337 114.83080292 25.15821838 116.14634705 C25 119 25 119 24 120 C22.21928754 120.08726223 20.4351686 120.10699041 18.65234375 120.09765625 C17.57275391 120.09443359 16.49316406 120.09121094 15.38085938 120.08789062 C14.24455078 120.07951172 13.10824219 120.07113281 11.9375 120.0625 C10.79732422 120.05798828 9.65714844 120.05347656 8.48242188 120.04882812 C5.65489649 120.03699747 2.8274736 120.0205141 0 120 C-0.76646907 116.60866298 -1.11645994 113.50676106 -1.08229065 110.03288269 C-1.07525116 109.05838165 -1.06821167 108.08388062 -1.06095886 107.07984924 C-1.04801285 106.02249069 -1.03506683 104.96513214 -1.02172852 103.87573242 C-1.01212097 102.75334167 -1.00251343 101.63095093 -0.99261475 100.47454834 C-0.95965856 96.76812399 -0.9193131 93.06181874 -0.87890625 89.35546875 C-0.85460185 86.78429076 -0.83075845 84.21310837 -0.80735779 81.641922 C-0.75096706 75.56820627 -0.68993016 69.49455355 -0.62663645 63.42090636 C-0.55481893 56.50439474 -0.48894545 49.58783048 -0.42356598 42.67125547 C-0.28898131 28.44743568 -0.14694916 14.22369716 0 0 Z " fill="#E9EAEB" transform="translate(507,625)"/>
<path d="M0 0 C0.33 0 0.66 0 1 0 C2.18537876 6.47115098 2.38648411 12.87480532 2.625 19.4375 C2.6765625 20.63955078 2.728125 21.84160156 2.78125 23.08007812 C3.12304917 32.19304712 3.12304917 32.19304712 2.4609375 36.53515625 C2.03389369 39.74522288 2.14359598 42.14333525 2.46484375 45.33984375 C3.44594447 56.38706933 2.8303681 67.49042846 2.5625 78.5625 C2.45346625 83.39443378 2.35003551 88.22646565 2.25 93.05859375 C2.22519058 94.25053345 2.20038116 95.44247314 2.17481995 96.67053223 C2.03329472 103.91836755 1.96580627 111.16104301 2 118.41015625 C2.00378159 119.25733719 2.00756317 120.10451813 2.01145935 120.97737122 C2.03289388 124.84798815 2.07012458 128.71785797 2.12524414 132.58813477 C2.13700705 133.93635959 2.14865241 135.28458544 2.16015625 136.6328125 C2.18541382 138.34815186 2.18541382 138.34815186 2.21118164 140.09814453 C2 143 2 143 0 147 C0 98.49 0 49.98 0 0 Z " fill="#FCFBF1" transform="translate(637,289)"/>
<path d="M0 0 C0.87462891 0.05671875 1.74925781 0.1134375 2.65039062 0.171875 C4.78849869 0.31207881 6.92563113 0.46702967 9.0625 0.625 C8.7325 1.285 8.4025 1.945 8.0625 2.625 C5.15625 3.07421875 5.15625 3.07421875 1.5625 3.3125 C0.3765625 3.39886719 -0.809375 3.48523438 -2.03125 3.57421875 C-2.9903125 3.59097656 -3.949375 3.60773438 -4.9375 3.625 C-5.4325 3.13 -5.4325 3.13 -5.9375 2.625 C-10.5221878 1.90864253 -13.84507574 3.78094166 -17.8515625 5.75 C-19.9375 6.625 -19.9375 6.625 -22.9375 6.625 C-23.185 7.429375 -23.4325 8.23375 -23.6875 9.0625 C-24.9375 11.625 -24.9375 11.625 -26.875 12.3125 C-27.555625 12.415625 -28.23625 12.51875 -28.9375 12.625 C-31.83361367 14.40024668 -31.83361367 14.40024668 -33.5 16.25 C-34.9375 17.625 -34.9375 17.625 -36.9375 17.625 C-37.205625 18.57375 -37.47375 19.5225 -37.75 20.5 C-38.9375 23.625 -38.9375 23.625 -41.9375 25.625 C-42.67356499 29.19269552 -42.67356499 29.19269552 -42.9375 32.625 C-43.5975 32.625 -44.2575 32.625 -44.9375 32.625 C-44.6075 33.615 -44.2775 34.605 -43.9375 35.625 C-44.5975 35.625 -45.2575 35.625 -45.9375 35.625 C-45.92589844 36.74777344 -45.91429687 37.87054688 -45.90234375 39.02734375 C-45.84798749 46.63806916 -45.83932265 54.0750307 -46.9375 61.625 C-47.2675 61.625 -47.5975 61.625 -47.9375 61.625 C-50.15703697 34.3319776 -50.15703697 34.3319776 -43.9375 24.625 C-43.49019531 23.82578125 -43.04289062 23.0265625 -42.58203125 22.203125 C-35.90117933 11.04965792 -25.67661673 4.82198133 -13.69140625 0.4375 C-8.97788603 -0.58270001 -4.78004531 -0.36350154 0 0 Z " fill="#28AFFD" transform="translate(358.9375,252.375)"/>
<path d="M0 0 C0.33 0 0.66 0 1 0 C1.02684679 2.64590014 1.04676357 5.29153096 1.0625 7.9375 C1.07087891 8.69224609 1.07925781 9.44699219 1.08789062 10.22460938 C1.09652441 12.14994313 1.05224333 14.07535581 1 16 C0 17 0 17 -2.39808655 17.12025452 C-3.46175949 17.11803391 -4.52543243 17.11581329 -5.62133789 17.11352539 C-6.82250748 17.11344986 -8.02367706 17.11337433 -9.26124573 17.11329651 C-10.5685112 17.10813522 -11.87577667 17.10297394 -13.22265625 17.09765625 C-14.56644132 17.09579198 -15.91022707 17.09436812 -17.25401306 17.09336853 C-20.79682277 17.08954402 -24.3395917 17.07971432 -27.88238525 17.06866455 C-31.49515227 17.05844899 -35.10792584 17.0538706 -38.72070312 17.04882812 C-45.8138188 17.03809198 -52.90690674 17.02101636 -60 17 C-60.33 18.32 -60.66 19.64 -61 21 C-61.33 19.02 -61.66 17.04 -62 15 C-41.54 15 -21.08 15 0 15 C0 10.05 0 5.1 0 0 Z " fill="#E7E8E9" transform="translate(393,690)"/>
<path d="M0 0 C7.26 0 14.52 0 22 0 C21.34 0.66 20.68 1.32 20 2 C14.06 2 8.12 2 2 2 C2 15.86 2 29.72 2 44 C1.34 44 0.68 44 0 44 C0 29.48 0 14.96 0 0 Z " fill="#FBFCFB" transform="translate(863,673)"/>
<path d="M0 0 C0.33 0 0.66 0 1 0 C1.00808685 0.5902446 1.01617371 1.1804892 1.02450562 1.78862 C1.11062433 7.93701568 1.21013127 14.08509169 1.31738281 20.2331543 C1.35564405 22.52704496 1.39050189 24.82099503 1.421875 27.11499023 C1.46758706 30.4141156 1.52557222 33.71283296 1.5859375 37.01171875 C1.59748871 38.03585373 1.60903992 39.05998871 1.62094116 40.11515808 C1.64081085 41.07577652 1.66068054 42.03639496 1.68115234 43.02612305 C1.69447601 43.86773483 1.70779968 44.70934662 1.7215271 45.57646179 C2.03653813 48.31798984 2.87655638 50.49062609 4 53 C5.65 53 7.3 53 9 53 C9.33 53.66 9.66 54.32 10 55 C12.64 54.34 15.28 53.68 18 53 C16.5 55 16.5 55 14 57 C9.18916379 57.61089984 7.1571007 57.73857492 3.0625 55.125 C0.02657723 51.99707957 -0.12398536 50.33805585 -0.11352539 46.09130859 C-0.11344986 45.07040131 -0.11337433 44.04949402 -0.11329651 42.99765015 C-0.10813522 41.89240997 -0.10297394 40.7871698 -0.09765625 39.6484375 C-0.0962413 38.5192691 -0.09482635 37.39010071 -0.09336853 36.22671509 C-0.08775744 32.60945012 -0.07520303 28.99224636 -0.0625 25.375 C-0.05748643 22.92708423 -0.05292328 20.47916748 -0.04882812 18.03125 C-0.0377844 12.02081234 -0.02103544 6.01041054 0 0 Z " fill="#0039FE" transform="translate(360,516)"/>
<path d="M0 0 C0 0.66 0 1.32 0 2 C0.99 1.67 1.98 1.34 3 1 C3 1.66 3 2.32 3 3 C-19.77 3 -42.54 3 -66 3 C-66 2.67 -66 2.34 -66 2 C-60.91689798 1.82567983 -55.83357571 1.65980016 -50.75 1.5 C-49.60917969 1.46398682 -49.60917969 1.46398682 -48.4453125 1.42724609 C-36.42753985 1.05548419 -24.43299547 0.91284911 -12.40917969 1.03710938 C-11.32540039 1.04548828 -10.24162109 1.05386719 -9.125 1.0625 C-8.17882812 1.07410156 -7.23265625 1.08570313 -6.2578125 1.09765625 C-3.85051612 0.99353443 -2.3840834 0 0 0 Z " fill="#1F6FFC" transform="translate(528,512)"/>
<path d="M0 0 C0.99 0 1.98 0 3 0 C2 3 2 3 1 5 C0.88112044 6.66399283 0.82288056 8.33249275 0.79467773 10.00048828 C0.77473251 11.04141632 0.75478729 12.08234436 0.73423767 13.15481567 C0.71752518 14.28192963 0.70081268 15.40904358 0.68359375 16.5703125 C0.66281265 17.72167694 0.64203156 18.87304138 0.62062073 20.05929565 C0.55508335 23.7478014 0.49622072 27.43638003 0.4375 31.125 C0.39431877 33.62110138 0.35070462 36.1171953 0.30664062 38.61328125 C0.19939769 44.74210981 0.09763911 50.87101133 0 57 C-0.33 57 -0.66 57 -1 57 C-1 40.5 -1 24 -1 7 C-1.66 7 -2.32 7 -3 7 C-2.67 6.01 -2.34 5.02 -2 4 C-2.33 3.34 -2.66 2.68 -3 2 C-2.01 2 -1.02 2 0 2 C0 1.34 0 0.68 0 0 Z " fill="#2C97FD" transform="translate(415,321)"/>
<path d="M0 0 C0.66 0.33 1.32 0.66 2 1 C2 5.95 2 10.9 2 16 C-5.26 16 -12.52 16 -20 16 C-19.67 15.34 -19.34 14.68 -19 14 C-12.73 14 -6.46 14 0 14 C0 9.38 0 4.76 0 0 Z " fill="#232B34" transform="translate(528,728)"/>
<path d="M0 0 C0.66 0 1.32 0 2 0 C2.391875 0.9075 2.78375 1.815 3.1875 2.75 C5.40798082 6.73155182 7.93860016 8.96930008 12 11 C13.87379605 11.07033769 15.75001102 11.0843022 17.625 11.0625 C18.62789063 11.05347656 19.63078125 11.04445313 20.6640625 11.03515625 C21.82035156 11.01775391 21.82035156 11.01775391 23 11 C22.67 11.66 22.34 12.32 22 13 C15.84722183 14.61915215 8.06548373 15.02182791 2 13 C2.04125 11.96875 2.0825 10.9375 2.125 9.875 C2.00424851 6.13170373 1.35127982 3.46265453 0 0 Z " fill="#1870FC" transform="translate(415,445)"/>
<path d="M0 0 C2.47657938 0.49531588 4.37960146 0.5742126 6.875 0.5 C10.38897441 0.55577737 11.96881301 0.66670867 14.8125 2.5625 C11.82904653 3.55698449 9.55802945 3.72538557 6.4375 3.875 C1.74380104 4.24800919 -0.86518213 5.01105676 -4.1875 8.5625 C-4.8475 8.2325 -5.5075 7.9025 -6.1875 7.5625 C-6.1875 6.2425 -6.1875 4.9225 -6.1875 3.5625 C-5.5275 3.5625 -4.8675 3.5625 -4.1875 3.5625 C-4.5175 2.5725 -4.8475 1.5825 -5.1875 0.5625 C-2.1875 -0.4375 -2.1875 -0.4375 0 0 Z " fill="#2397FD" transform="translate(423.1875,312.4375)"/>
<path d="M0 0 C0.66 0.33 1.32 0.66 2 1 C2 4.63 2 8.26 2 12 C-5.26 12 -12.52 12 -20 12 C-20 9.36 -20 6.72 -20 4 C-19.67 4 -19.34 4 -19 4 C-19 5.98 -19 7.96 -19 10 C-12.73 10 -6.46 10 0 10 C0 6.7 0 3.4 0 0 Z " fill="#242A34" transform="translate(425,732)"/>
<path d="M0 0 C1.48576635 4.01156915 0.80747878 4.48130304 -1 9 C-9.25 9 -17.5 9 -26 9 C-26.33 7.35 -26.66 5.7 -27 4 C-26.34 4.66 -25.68 5.32 -25 6 C-22.47962036 6.37135915 -22.47962036 6.37135915 -19.5546875 6.4140625 C-17.94013672 6.47207031 -17.94013672 6.47207031 -16.29296875 6.53125 C-14.60107422 6.57765625 -14.60107422 6.57765625 -12.875 6.625 C-11.17150391 6.68300781 -11.17150391 6.68300781 -9.43359375 6.7421875 C-6.62256044 6.83667601 -3.81153767 6.92223541 -1 7 C-0.67 4.69 -0.34 2.38 0 0 Z " fill="#272E36" transform="translate(279,735)"/>
<path d="M0 0 C0.99 0.33 1.98 0.66 3 1 C2.34 1 1.68 1 1 1 C1.020625 2.175625 1.04125 3.35125 1.0625 4.5625 C1.05557144 8.45634902 0.78110286 12.17259601 0 16 C-0.66 16.33 -1.32 16.66 -2 17 C-2.65555119 19.52733235 -2.65555119 19.52733235 -3 22 C-3.66 22 -4.32 22 -5 22 C-4.67 23.32 -4.34 24.64 -4 26 C-4.99 26.33 -5.98 26.66 -7 27 C-5.38949895 17.77622123 -2.71861481 8.94445024 0 0 Z " fill="#ECEDED" transform="translate(217,700)"/>
<path d="M0 0 C0.66 0.33 1.32 0.66 2 1 C-10.48519362 13.66970387 -10.48519362 13.66970387 -17 19 C-17.66 18.67 -18.32 18.34 -19 18 C-16.54418915 13.57954047 -14.07950051 10.23645977 -9.6875 7.625 C-6.11246173 5.46334895 -3.11279203 2.77190991 0 0 Z " fill="#125AFC" transform="translate(424,525)"/>
<path d="M0 0 C0.66 0.33 1.32 0.66 2 1 C1.69052329 2.93798521 1.37731166 4.87537426 1.0625 6.8125 C0.88847656 7.89144531 0.71445312 8.97039063 0.53515625 10.08203125 C0 13 0 13 -1 16 C-1.66 16 -2.32 16 -3 16 C-2.79375 16.556875 -2.5875 17.11375 -2.375 17.6875 C-1.88119305 20.73264283 -2.57652759 22.29540241 -4 25 C-4.99 25.66 -5.98 26.32 -7 27 C-4.76819645 17.97082523 -2.50525868 8.95819769 0 0 Z " fill="#E9EAEB" transform="translate(293,689)"/>
<path d="M0 0 C-6.70560169 5.19814085 -15.26375584 10 -24 10 C-24 9.01 -24 8.02 -24 7 C-22.85660156 6.73445312 -21.71320312 6.46890625 -20.53515625 6.1953125 C-19.04416709 5.83897547 -17.55328721 5.48218096 -16.0625 5.125 C-14.93038086 4.86396484 -14.93038086 4.86396484 -13.77539062 4.59765625 C-11.83406455 4.12755935 -9.91450456 3.5695703 -8 3 C-7.67 2.34 -7.34 1.68 -7 1 C-2.44155844 -1.22077922 -2.44155844 -1.22077922 0 0 Z " fill="#0F4DFC" transform="translate(618,506)"/>
<path d="M0 0 C1.65 1.65 3.3 3.3 5 5 C4.01 5 3.02 5 2 5 C1.67 7.31 1.34 9.62 1 12 C-6.92 12 -14.84 12 -23 12 C-23 11.67 -23 11.34 -23 11 C-15.41 11 -7.82 11 0 11 C0 7.37 0 3.74 0 0 Z " fill="#FBFCFC" transform="translate(427,733)"/>
<path d="M0 0 C0 6.27 0 12.54 0 19 C-0.66 19 -1.32 19 -2 19 C-2 13.39 -2 7.78 -2 2 C-2.99 1.67 -3.98 1.34 -5 1 C-2 0 -2 0 0 0 Z " fill="#2E323A" transform="translate(885,724)"/>
<path d="M0 0 C1.4540625 0.495 1.4540625 0.495 2.9375 1 C7.21243554 2.22141016 11.58300459 2.61172238 16 2 C16.66 1.34 17.32 0.68 18 0 C20.125 0.375 20.125 0.375 22 1 C17.14369969 4.98910383 13.26757254 5.43224638 7 5 C1.34883721 2.69767442 1.34883721 2.69767442 0 0 Z " fill="#1554FD" transform="translate(710,465)"/>
<path d="M0 0 C0.268125 0.639375 0.53625 1.27875 0.8125 1.9375 C1.88667752 4.33131686 1.88667752 4.33131686 5 5 C8 6 8 6 9 7 C10.92139613 6.67256303 10.92139613 6.67256303 13.0625 6.0625 C13.79597656 5.86785156 14.52945312 5.67320312 15.28515625 5.47265625 C15.85105469 5.31667969 16.41695313 5.16070313 17 5 C15.5 7 15.5 7 13 9 C8.22626273 9.60618886 6.16028144 9.71591834 2.0625 7.1875 C0 5 0 5 -1 2 C-0.67 1.34 -0.34 0.68 0 0 Z " fill="#0F54FB" transform="translate(361,564)"/>
<path d="M0 0 C0.66 0.99 1.32 1.98 2 3 C1.34 3 0.68 3 0 3 C-0.103125 3.5775 -0.20625 4.155 -0.3125 4.75 C-1.09792798 7.32049158 -2.30504197 8.93657284 -4 11 C-4.99 10.67 -5.98 10.34 -7 10 C-6.39816251 7.97954558 -5.72693904 5.97888961 -5 4 C-4.34 3.67 -3.68 3.34 -3 3 C-3 2.34 -3 1.68 -3 1 C-2.01 0.67 -1.02 0.34 0 0 Z " fill="#2593FE" transform="translate(339,376)"/>
<path d="M0 0 C0.33 0.99 0.66 1.98 1 3 C-0.546875 5.59375 -0.546875 5.59375 -2.75 8.5 C-3.82507813 9.93859375 -3.82507813 9.93859375 -4.921875 11.40625 C-6.53486175 13.4194515 -8.12226889 15.24111263 -10 17 C-10.66 16.67 -11.32 16.34 -12 16 C-11.360625 15.443125 -10.72125 14.88625 -10.0625 14.3125 C-7.80319013 11.77933439 -7.36850953 10.31658576 -7 7 C-6.01 7 -5.02 7 -4 7 C-3.71125 6.030625 -3.4225 5.06125 -3.125 4.0625 C-2 1 -2 1 0 0 Z " fill="#1253FC" transform="translate(631,487)"/>
<path d="M0 0 C0.33 0.66 0.66 1.32 1 2 C0.34 2 -0.32 2 -1 2 C-1 2.99 -1 3.98 -1 5 C-1.99 5 -2.98 5 -4 5 C-4 5.99 -4 6.98 -4 8 C-4.78375 7.95875 -5.5675 7.9175 -6.375 7.875 C-9.16116119 7.71271266 -9.16116119 7.71271266 -11 10 C-11.99 9.67 -12.98 9.34 -14 9 C-12.41906946 7.87162591 -10.83515284 6.74743482 -9.25 5.625 C-8.36828125 4.99851562 -7.4865625 4.37203125 -6.578125 3.7265625 C-4.42585021 2.28519059 -2.34539477 1.08501907 0 0 Z " fill="#136CFB" transform="translate(513,408)"/>
<path d="M0 0 C0.99 0 1.98 0 3 0 C3 5.61 3 11.22 3 17 C2.01 16.67 1.02 16.34 0 16 C0 10.72 0 5.44 0 0 Z " fill="#383E47" transform="translate(820,688)"/>
<path d="M0 0 C1.69141326 2.53711988 2.43307391 4.12657367 3.3125 6.9375 C4.70263656 10.82844923 6.4842099 12.7194875 10 15 C9.01 15.99 8.02 16.98 7 18 C2.96151268 11.9731443 0.27124478 7.32360897 0 0 Z " fill="#1363FC" transform="translate(311,479)"/>
<path d="M0 0 C0.66 0 1.32 0 2 0 C3.17154293 2.28929053 4.33738074 4.58118362 5.5 6.875 C5.83386719 7.52597656 6.16773438 8.17695312 6.51171875 8.84765625 C9 13.7734375 9 13.7734375 9 16 C8.34 16 7.68 16 7 16 C5.82845707 13.71070947 4.66261926 11.41881638 3.5 9.125 C3.16613281 8.47402344 2.83226562 7.82304688 2.48828125 7.15234375 C0 2.2265625 0 2.2265625 0 0 Z " fill="#E5E6E7" transform="translate(535,626)"/>
<path d="M0 0 C0.66 0.66 1.32 1.32 2 2 C1.01 3.98 0.02 5.96 -1 8 C-1.99 8 -2.98 8 -4 8 C-4.33 5.69 -4.66 3.38 -5 1 C-2.525 1.495 -2.525 1.495 0 2 C0 1.34 0 0.68 0 0 Z " fill="#2596FD" transform="translate(324,364)"/>
<path d="M0 0 C0.66 0 1.32 0 2 0 C2.33 0.66 2.66 1.32 3 2 C3.99 2.33 4.98 2.66 6 3 C5.67 3.66 5.34 4.32 5 5 C-0.61 4.67 -6.22 4.34 -12 4 C-12 3.67 -12 3.34 -12 3 C-11.21753906 2.95101562 -10.43507813 2.90203125 -9.62890625 2.8515625 C-8.61699219 2.77679687 -7.60507812 2.70203125 -6.5625 2.625 C-5.55316406 2.55539062 -4.54382813 2.48578125 -3.50390625 2.4140625 C-2.26447266 2.20910156 -2.26447266 2.20910156 -1 2 C-0.67 1.34 -0.34 0.68 0 0 Z " fill="#CACCCF" transform="translate(462,650)"/>
<path d="M0 0 C0.33 0.99 0.66 1.98 1 3 C-0.61992165 3.86375896 -2.24611861 4.71575854 -3.875 5.5625 C-5.23238281 6.27599609 -5.23238281 6.27599609 -6.6171875 7.00390625 C-7.40351562 7.33261719 -8.18984375 7.66132813 -9 8 C-9.66 7.67 -10.32 7.34 -11 7 C-7.37 4.69 -3.74 2.38 0 0 Z " fill="#136AFC" transform="translate(526,400)"/>
<path d="M0 0 C5.28 0 10.56 0 16 0 C10.76877765 2.61561118 7.76510607 3 2 3 C2 2.34 2 1.68 2 1 C1.34 0.67 0.68 0.34 0 0 Z " fill="#2EAEFE" transform="translate(378,253)"/>
<path d="M0 0 C0.6875 1.6875 0.6875 1.6875 1 4 C-0.4375 6.75 -0.4375 6.75 -2 9 C-2.33 8.34 -2.66 7.68 -3 7 C-2.0625 4.375 -2.0625 4.375 -1 2 C-4.3 2 -7.6 2 -11 2 C-11 1.67 -11 1.34 -11 1 C-7.26562152 0.12132271 -3.83225427 -0.08912219 0 0 Z " fill="#E1E2E4" transform="translate(822,718)"/>
<path d="M0 0 C4.52188994 3.14020135 6.6833568 6.09940861 9 11 C8.67 11.99 8.34 12.98 8 14 C4 7.25 4 7.25 4 5 C3.01 5 2.02 5 1 5 C0.67 3.35 0.34 1.7 0 0 Z " fill="#0E6BFD" transform="translate(623,267)"/>
<path d="M0 0 C0.66 0.33 1.32 0.66 2 1 C1.93967927 2.4386494 1.85079867 3.87611902 1.75 5.3125 C1.70359375 6.11300781 1.6571875 6.91351562 1.609375 7.73828125 C1 10 1 10 -3 13 C-2.01 8.71 -1.02 4.42 0 0 Z " fill="#E2E3E4" transform="translate(285,717)"/>
<path d="M0 0 C-1.65 0.33 -3.3 0.66 -5 1 C-5 1.66 -5 2.32 -5 3 C-7.31 3.33 -9.62 3.66 -12 4 C-12 3.01 -12 2.02 -12 1 C-3.96428571 -1.27678571 -3.96428571 -1.27678571 0 0 Z " fill="#135CFC" transform="translate(606,512)"/>
<path d="M0 0 C1.32 1.32 2.64 2.64 4 4 C3.67 4.99 3.34 5.98 3 7 C3.38932856 9.14255793 3.38932856 9.14255793 4 11 C3.67 10.34 3.34 9.68 3 9 C2.01 9.33 1.02 9.66 0 10 C0.185625 9.0925 0.37125 8.185 0.5625 7.25 C0.95734621 4.31685676 0.94691572 2.7355343 0 0 Z " fill="#1E73FC" transform="translate(319,489)"/>
<path d="M0 0 C0.66 0.33 1.32 0.66 2 1 C0.35 2.98 -1.3 4.96 -3 7 C-2.67 7.66 -2.34 8.32 -2 9 C-3.98 9.99 -3.98 9.99 -6 11 C-6.40060526 7.49470398 -6.15413141 6.2260594 -4.125 3.25 C-2 1 -2 1 0 0 Z " fill="#279DFD" transform="translate(461,278)"/>
<path d="M0 0 C0.33 1.32 0.66 2.64 1 4 C-4.94 2.515 -4.94 2.515 -11 1 C-6.8204355 -1.78637633 -4.85331323 -0.79562512 0 0 Z " fill="#E4E6E6" transform="translate(707,653)"/>
<path d="M0 0 C0.33 0 0.66 0 1 0 C1.38873828 1.95565258 1.76060833 3.91466504 2.125 5.875 C2.33382812 6.96554687 2.54265625 8.05609375 2.7578125 9.1796875 C2.83773437 10.11039063 2.91765625 11.04109375 3 12 C2.34 12.66 1.68 13.32 1 14 C-0.20568053 9.32798795 -0.09382426 4.78503708 0 0 Z " fill="#383E46" transform="translate(761,705)"/>
<path d="M0 0 C0.66 0.33 1.32 0.66 2 1 C2.625 3.5625 2.625 3.5625 3 6 C0.525 7.485 0.525 7.485 -2 9 C-1.34 6.03 -0.68 3.06 0 0 Z " fill="#EAEBEC" transform="translate(228,661)"/>
<path d="M0 0 C0.99 0 1.98 0 3 0 C1.55746343 3.36591866 -0.33264727 5.51047079 -3 8 C-3.66 7.67 -4.32 7.34 -5 7 C-4.54625 6.5875 -4.0925 6.175 -3.625 5.75 C-1.94049626 3.93591905 -1.00734029 2.24714373 0 0 Z " fill="#0C54FC" transform="translate(398,547)"/>
<path d="M0 0 C1.33332095 2.6666419 0.67102033 4.16680303 0 7 C-1.32 7.33 -2.64 7.66 -4 8 C-3.50168276 4.31245243 -2.89932357 2.39509338 0 0 Z " fill="#2497FD" transform="translate(363,347)"/>
<path d="M0 0 C4.875 1.75 4.875 1.75 6 4 C5.34 4 4.68 4 4 4 C3.67 4.66 3.34 5.32 3 6 C1.35 4.68 -0.3 3.36 -2 2 C-1.34 1.34 -0.68 0.68 0 0 Z " fill="#1877FD" transform="translate(613,259)"/>
<path d="M0 0 C0.66 0.33 1.32 0.66 2 1 C-0.38957269 4.24299151 -2.2047869 6.50902342 -6 8 C-5.65120368 4.74456771 -4.97866739 3.98126893 -2.4375 1.75 C-1.633125 1.1725 -0.82875 0.595 0 0 Z " fill="#E9EAEB" transform="translate(800,717)"/>
<path d="M0 0 C0.33 0 0.66 0 1 0 C1.3125 2.75 1.3125 2.75 1 6 C-1.5 8.375 -1.5 8.375 -4 10 C-2.8905928 6.51329166 -1.73662334 3.22515763 0 0 Z " fill="#EBECED" transform="translate(610,663)"/>
<path d="M0 0 C0.66 0.33 1.32 0.66 2 1 C0.63016497 4.16115776 0.0109362 4.9927092 -3 7 C-2.25 2.25 -2.25 2.25 0 0 Z " fill="#256AFC" transform="translate(404,542)"/>
<path d="M0 0 C0 1.32 0 2.64 0 4 C-2.31 4.33 -4.62 4.66 -7 5 C-2.25 0 -2.25 0 0 0 Z " fill="#166EFB" transform="translate(535,395)"/>
<path d="M0 0 C0.99 0.33 1.98 0.66 3 1 C3.33 1.99 3.66 2.98 4 4 C2.35 4.33 0.7 4.66 -1 5 C-0.67 3.35 -0.34 1.7 0 0 Z " fill="#2599FE" transform="translate(320,354)"/>
<path d="M0 0 C1.32 0 2.64 0 4 0 C4 1.65 4 3.3 4 5 C2.35 4.67 0.7 4.34 -1 4 C-0.67 2.68 -0.34 1.36 0 0 Z " fill="#2693FE" transform="translate(525,258)"/>
<path d="M0 0 C-2.57089417 2.11180592 -4.63060567 3.66306057 -8 4 C-8.66 3.34 -9.32 2.68 -10 2 C-6.5980513 -0.09350689 -3.94727588 -0.17942163 0 0 Z " fill="#1CADFE" transform="translate(351,253)"/>
<path d="M0 0 C0.99 0 1.98 0 3 0 C1.375 5.75 1.375 5.75 -2 8 C-1.34 5.36 -0.68 2.72 0 0 Z " fill="#E1E2E3" transform="translate(207,735)"/>
<path d="M0 0 C1.32 0 2.64 0 4 0 C3.67 1.65 3.34 3.3 3 5 C1.68 4.34 0.36 3.68 -1 3 C-0.67 2.01 -0.34 1.02 0 0 Z " fill="#393E45" transform="translate(387,720)"/>
<path d="M0 0 C0.66 0.66 1.32 1.32 2 2 C1.625 5.125 1.625 5.125 1 8 C0.34 8 -0.32 8 -1 8 C-1.125 2.25 -1.125 2.25 0 0 Z " fill="#E6E7E8" transform="translate(193,701)"/>
<path d="M0 0 C0.66 0.33 1.32 0.66 2 1 C1.34 2.32 0.68 3.64 0 5 C-1.98 5 -3.96 5 -6 5 C-2.25 1.125 -2.25 1.125 0 0 Z " fill="#136AFB" transform="translate(471,434)"/>
<path d="M0 0 C0.66 0.33 1.32 0.66 2 1 C0.8125 3 0.8125 3 -1 5 C-3.6875 5.25 -3.6875 5.25 -6 5 C-2.25 1.125 -2.25 1.125 0 0 Z " fill="#126CFB" transform="translate(495,419)"/>
<path d="M0 0 C0.66 0.99 1.32 1.98 2 3 C1.34 3 0.68 3 0 3 C0.33 3.99 0.66 4.98 1 6 C-0.32 6.99 -1.64 7.98 -3 9 C-3 7.35 -3 5.7 -3 4 C-2.34 4 -1.68 4 -1 4 C-0.67 2.68 -0.34 1.36 0 0 Z " fill="#21AAFE" transform="translate(314,282)"/>
</svg>
