<?xml version="1.0" encoding="UTF-8"?>
<svg version="1.1" xmlns="http://www.w3.org/2000/svg" width="965" height="965">
<path d="M0 0 C1.37770534 0.00331242 2.75541128 0.00638141 4.13311768 0.00921631 C26.26258554 0.07054216 48.0527116 1.02847377 69.9375 4.4375 C70.63568848 4.54404907 71.33387695 4.65059814 72.05322266 4.76037598 C114.41568434 11.25359079 155.77384489 22.9612453 194.9375 40.4375 C195.92073242 40.86885254 196.90396484 41.30020508 197.91699219 41.74462891 C239.31602018 59.93390348 277.34649042 84.36528397 311.9375 113.4375 C312.4850293 113.89479492 313.03255859 114.35208984 313.59667969 114.82324219 C320.60692305 120.68895602 327.3324549 126.66657711 333.71875 133.21875 C335.68054335 135.18054335 337.68589316 136.97201723 339.8125 138.75 C345.1150327 143.29654912 349.68839001 148.55263669 354.36865234 153.72021484 C355.89237029 155.38810031 357.43546023 157.03499869 358.98828125 158.67578125 C365.57845746 165.65744252 371.62613971 172.90297503 377.45849609 180.52587891 C379.00860917 182.52940902 380.58859116 184.50620484 382.17578125 186.48046875 C395.4810552 203.1258752 407.38858424 220.92001364 417.9375 239.4375 C418.53570557 240.48381592 418.53570557 240.48381592 419.14599609 241.55126953 C424.72306889 251.34593673 430.02083376 261.25232432 434.93994141 271.39355469 C435.94866329 273.46037299 436.97936484 275.51521243 438.01171875 277.5703125 C457.52904474 316.95934172 469.53338946 359.7381328 477.1875 402.875 C477.42178711 404.16833252 477.65607422 405.46166504 477.89746094 406.79418945 C482.2498594 431.87141954 483.49648643 457.09136685 483.375 482.5 C483.37168758 483.87770534 483.36861859 485.25541128 483.36578369 486.63311768 C483.30445784 508.76258554 482.34652623 530.5527116 478.9375 552.4375 C478.83095093 553.13568848 478.72440186 553.83387695 478.61462402 554.55322266 C472.12140921 596.91568434 460.4137547 638.27384489 442.9375 677.4375 C442.50614746 678.42073242 442.07479492 679.40396484 441.63037109 680.41699219 C423.44109652 721.81602018 399.00971603 759.84649042 369.9375 794.4375 C369.48020508 794.9850293 369.02291016 795.53255859 368.55175781 796.09667969 C362.68604398 803.10692305 356.70842289 809.8324549 350.15625 816.21875 C348.19445665 818.18054335 346.40298277 820.18589316 344.625 822.3125 C340.07845088 827.6150327 334.82236331 832.18839001 329.65478516 836.86865234 C327.98689969 838.39237029 326.34000131 839.93546023 324.69921875 841.48828125 C317.71755748 848.07845746 310.47202497 854.12613971 302.84912109 859.95849609 C300.84559098 861.50860917 298.86879516 863.08859116 296.89453125 864.67578125 C280.2491248 877.9810552 262.45498636 889.88858424 243.9375 900.4375 C243.23995605 900.83630371 242.54241211 901.23510742 241.82373047 901.64599609 C232.02906327 907.22306889 222.12267568 912.52083376 211.98144531 917.43994141 C209.91462701 918.44866329 207.85978757 919.47936484 205.8046875 920.51171875 C166.41565828 940.02904474 123.6368672 952.03338946 80.5 959.6875 C79.20666748 959.92178711 77.91333496 960.15607422 76.58081055 960.39746094 C51.50358046 964.7498594 26.28363315 965.99648643 0.875 965.875 C-0.50270534 965.87168758 -1.88041128 965.86861859 -3.25811768 965.86578369 C-25.38758554 965.80445784 -47.1777116 964.84652623 -69.0625 961.4375 C-69.76068848 961.33095093 -70.45887695 961.22440186 -71.17822266 961.11462402 C-113.54068434 954.62140921 -154.89884489 942.9137547 -194.0625 925.4375 C-195.04573242 925.00614746 -196.02896484 924.57479492 -197.04199219 924.13037109 C-238.44102018 905.94109652 -276.47149042 881.50971603 -311.0625 852.4375 C-311.88379395 851.75155762 -311.88379395 851.75155762 -312.72167969 851.05175781 C-319.73192305 845.18604398 -326.4574549 839.20842289 -332.84375 832.65625 C-334.80554335 830.69445665 -336.81089316 828.90298277 -338.9375 827.125 C-344.2400327 822.57845088 -348.81339001 817.32236331 -353.49365234 812.15478516 C-355.01737029 810.48689969 -356.56046023 808.84000131 -358.11328125 807.19921875 C-364.70345746 800.21755748 -370.75113971 792.97202497 -376.58349609 785.34912109 C-378.13360917 783.34559098 -379.71359116 781.36879516 -381.30078125 779.39453125 C-394.6060552 762.7491248 -406.51358424 744.95498636 -417.0625 726.4375 C-417.46130371 725.73995605 -417.86010742 725.04241211 -418.27099609 724.32373047 C-423.84806889 714.52906327 -429.14583376 704.62267568 -434.06494141 694.48144531 C-435.07366329 692.41462701 -436.10436484 690.35978757 -437.13671875 688.3046875 C-456.65404474 648.91565828 -468.65838946 606.1368672 -476.3125 563 C-476.54678711 561.70666748 -476.78107422 560.41333496 -477.02246094 559.08081055 C-481.3748594 534.00358046 -482.62148643 508.78363315 -482.5 483.375 C-482.49668758 481.99729466 -482.49361859 480.61958872 -482.49078369 479.24188232 C-482.42945784 457.11241446 -481.47152623 435.3222884 -478.0625 413.4375 C-477.95595093 412.73931152 -477.84940186 412.04112305 -477.73962402 411.32177734 C-471.24640921 368.95931566 -459.5387547 327.60115511 -442.0625 288.4375 C-441.63114746 287.45426758 -441.19979492 286.47103516 -440.75537109 285.45800781 C-422.56609652 244.05897982 -398.13471603 206.02850958 -369.0625 171.4375 C-368.60520508 170.8899707 -368.14791016 170.34244141 -367.67675781 169.77832031 C-361.81104398 162.76807695 -355.83342289 156.0425451 -349.28125 149.65625 C-347.31945665 147.69445665 -345.52798277 145.68910684 -343.75 143.5625 C-339.20345088 138.2599673 -333.94736331 133.68660999 -328.77978516 129.00634766 C-327.11189969 127.48262971 -325.46500131 125.93953977 -323.82421875 124.38671875 C-316.84255748 117.79654254 -309.59702497 111.74886029 -301.97412109 105.91650391 C-299.97059098 104.36639083 -297.99379516 102.78640884 -296.01953125 101.19921875 C-279.3741248 87.8939448 -261.57998636 75.98641576 -243.0625 65.4375 C-242.01618408 64.83929443 -242.01618408 64.83929443 -240.94873047 64.22900391 C-231.15406327 58.65193111 -221.24767568 53.35416624 -211.10644531 48.43505859 C-209.03962701 47.42633671 -206.98478757 46.39563516 -204.9296875 45.36328125 C-165.54065828 25.84595526 -122.7618672 13.84161054 -79.625 6.1875 C-78.33166748 5.95321289 -77.03833496 5.71892578 -75.70581055 5.47753906 C-50.62858046 1.1251406 -25.40863315 -0.12148643 0 0 Z " fill="#FCFBFC" transform="translate(482.0625,-0.43750000000000006)"/>
<path d="M0 0 C1.64531301 -0.00302478 3.29062462 -0.0069159 4.93593377 -0.01159257 C9.43330475 -0.02183924 13.93059571 -0.01969927 18.42797315 -0.01541197 C23.28767903 -0.01293868 28.14736595 -0.02196641 33.00706482 -0.02944946 C42.51867409 -0.04218181 52.03025511 -0.04399197 61.54187147 -0.0416492 C69.27556956 -0.03986421 77.00925909 -0.04161956 84.74295616 -0.04587364 C86.3957111 -0.04676643 86.3957111 -0.04676643 88.08185503 -0.04767724 C90.32044091 -0.04888903 92.5590268 -0.05010317 94.79761269 -0.05131962 C115.77899827 -0.06218956 136.76036777 -0.06003528 157.74175426 -0.05393478 C176.92103456 -0.04876636 196.10026406 -0.06002007 215.27953432 -0.07903299 C234.98963126 -0.09842182 254.69970418 -0.10666554 274.40981072 -0.10290974 C285.4687738 -0.10099926 296.52769365 -0.10347042 307.58664894 -0.11762428 C317.00152147 -0.12955236 326.41632415 -0.13092696 335.83119766 -0.11883412 C340.63091046 -0.11295542 345.4304956 -0.11181803 350.23019981 -0.12383652 C354.63149752 -0.13472894 359.03256148 -0.13155224 363.4338484 -0.11757483 C365.01854949 -0.11493712 366.6032691 -0.11726505 368.18795196 -0.1253107 C387.39335717 -0.2159828 404.85081644 3.91882412 420.62382507 15.26069641 C421.54034851 15.91811829 422.45687195 16.57554016 423.40116882 17.25288391 C433.3184068 24.84729055 440.302651 34.12813367 445.99882507 45.13569641 C446.30844177 45.72230042 446.61805847 46.30890442 446.9370575 46.9132843 C454.52145631 62.4554233 454.2097197 78.20413438 454.14672375 95.1300329 C454.13758753 98.76817579 454.15168504 102.40624487 454.16264343 106.04437256 C454.18034331 113.15247903 454.17662685 120.26041567 454.16499287 127.36852854 C454.15592428 133.15084667 454.15474928 138.93311753 454.15908813 144.71544075 C454.15970107 145.54139721 454.160314 146.36735366 454.1609455 147.2183391 C454.16222453 148.89676441 454.16352139 150.57518969 454.16483587 152.25361497 C454.17621686 167.95828903 454.16316741 183.6628694 454.1416344 199.36752809 C454.12376901 212.81300284 454.12686774 226.25833939 454.14530945 239.70381165 C454.1667659 255.35438052 454.17511497 271.00486744 454.16286039 286.65544897 C454.16158633 288.32767807 454.16032885 289.99990718 454.15908813 291.67213631 C454.15847103 292.49469318 454.15785393 293.31725005 454.15721813 294.16473288 C454.15377927 299.93274796 454.15956188 305.70071062 454.16900635 311.46871758 C454.18028111 318.50864771 454.17707231 325.5483997 454.15588337 332.5883097 C454.14544546 336.17319239 454.14112511 339.75777919 454.15447998 343.342659 C454.26952678 377.00410253 454.26952678 377.00410253 445.99882507 392.44819641 C445.65819031 393.1012677 445.31755554 393.75433899 444.96659851 394.42720032 C434.8109688 413.23476839 418.22167714 427.79655934 397.62382507 434.26069641 C383.72328283 437.92312597 369.90105011 437.65043582 355.62406921 437.56611633 C353.02550944 437.56202916 350.42694705 437.5593834 347.8283844 437.55805969 C342.26231375 437.5536027 336.69634494 437.53916024 331.13031197 437.51856041 C322.32624367 437.48676302 313.52228547 437.48521192 304.71817017 437.48806763 C301.69719411 437.48866703 298.67621806 437.48904884 295.65524197 437.4893465 C294.52335205 437.48946487 294.52335205 437.48946487 293.36859568 437.48958563 C284.80938037 437.49001558 276.25017402 437.48370551 267.69096375 437.47480774 C266.5193076 437.47360118 266.5193076 437.47360118 265.32398164 437.47237024 C252.64046954 437.4586216 239.95705899 437.42537342 227.27359898 437.38768598 C214.2202205 437.34965907 201.16704953 437.3423482 188.11362928 437.3609665 C180.07713576 437.37126587 172.04148734 437.35631558 164.00512557 437.30852059 C157.85169393 437.2742556 151.69895308 437.28160948 145.54548264 437.30431366 C143.02557274 437.30694056 140.5056054 437.29587898 137.98582649 437.27005196 C134.54230944 437.23673901 131.10235986 437.25278064 127.65887451 437.28088379 C126.6649027 437.25942565 125.67093089 437.2379675 124.64683872 437.21585912 C117.71237658 437.34664425 114.34545738 439.41986281 109.45906442 444.29718763 C108.85343544 444.94514553 108.24780645 445.59310342 107.62382507 446.26069641 C106.33411804 447.51753235 106.33411804 447.51753235 105.01835632 448.79975891 C104.22816101 449.61186829 103.4379657 450.42397766 102.62382507 451.26069641 C101.46223813 452.43633619 100.29936438 453.61070525 99.13554382 454.78413391 C98.51566589 455.40916809 97.89578796 456.03420227 97.25712585 456.67817688 C92.1306979 461.83547918 87.04008033 466.95137457 81.46757507 471.63179016 C78.30729383 474.42381829 75.42288419 477.49477932 72.50663757 480.53804016 C70.62382507 482.26069641 70.62382507 482.26069641 68.62382507 482.26069641 C68.62382507 482.92069641 68.62382507 483.58069641 68.62382507 484.26069641 C67.36601257 485.49507141 67.36601257 485.49507141 65.49882507 487.01069641 C61.31476462 490.55449138 57.47208364 494.36226765 53.62382507 498.26069641 C49.38098867 502.54937714 45.11997264 506.70738096 40.50273132 510.59663391 C37.33318457 513.40375848 34.43466253 516.48248798 31.50663757 519.53804016 C29.62382507 521.26069641 29.62382507 521.26069641 27.62382507 521.26069641 C27.37503601 521.85366516 27.12624695 522.44663391 26.86991882 523.05757141 C24.55321693 527.15355846 20.83350015 529.33645144 16.62382507 531.26069641 C11.51480148 532.14277921 7.1535923 531.77061882 2.24882507 530.13569641 C-1.47414523 527.47643191 -4.3066105 524.39982526 -6.37617493 520.26069641 C-6.46922649 517.63638492 -6.50197107 515.03884845 -6.48970032 512.414505 C-6.48984634 511.6046666 -6.48999237 510.79482819 -6.49014282 509.96044922 C-6.4894447 507.27665045 -6.48165697 504.5929206 -6.47383118 501.90913391 C-6.47196664 500.05111224 -6.47054291 498.19309008 -6.46954346 496.33506775 C-6.46572108 491.43927153 -6.45589316 486.54350486 -6.44483948 481.64772034 C-6.43461937 476.6541331 -6.43004455 471.66054109 -6.42500305 466.66694641 C-6.41427066 456.86485007 -6.39719757 447.0627757 -6.37617493 437.26069641 C-7.12713943 437.2662706 -7.87810394 437.27184479 -8.65182495 437.27758789 C-10.13295021 437.28409111 -10.13295021 437.28409111 -11.64399719 437.29072571 C-12.6218367 437.2962999 -13.59967621 437.30187408 -14.60714722 437.30761719 C-33.75293578 436.98319455 -53.62227148 426.04747863 -66.79585266 412.55171204 C-81.49322985 396.61220631 -88.71632445 377.44162285 -88.63014221 355.88813782 C-88.63326219 354.67791773 -88.63638217 353.46769764 -88.6395967 352.22080421 C-88.64615949 348.8877574 -88.64384403 345.55493833 -88.63762426 342.22190571 C-88.63307873 338.61721352 -88.64009391 335.01254049 -88.64558411 331.40785217 C-88.65445741 324.35659423 -88.65256531 317.30537898 -88.64675882 310.2541194 C-88.6422342 304.52122111 -88.64163289 298.78833474 -88.64380646 293.05543518 C-88.64411292 292.23817038 -88.64441939 291.42090558 -88.64473514 290.57887518 C-88.64537462 288.91839583 -88.64602305 287.25791649 -88.64668033 285.59743714 C-88.65237757 270.04273858 -88.64583523 254.48806362 -88.63507959 238.93336892 C-88.62614463 225.59910689 -88.62769684 212.26487969 -88.63691711 198.93061829 C-88.64763044 183.42995061 -88.65182831 167.9293036 -88.64569259 152.42863274 C-88.64505552 150.77440771 -88.64442678 149.12018268 -88.64380646 147.46595764 C-88.64349791 146.652138 -88.64318936 145.83831836 -88.64287145 144.99983752 C-88.6411477 139.27666579 -88.64405272 133.55350722 -88.64876556 127.83033752 C-88.6543862 120.85164832 -88.65283311 113.87300409 -88.64220408 106.89432001 C-88.63696327 103.33661837 -88.63486336 99.7789916 -88.64150238 96.22129059 C-88.64860135 92.35857012 -88.6401004 88.4959711 -88.63014221 84.633255 C-88.63683438 82.95959838 -88.63683438 82.95959838 -88.64366174 81.25213051 C-88.53039768 58.56175561 -79.17872557 39.53707916 -63.75117493 23.13569641 C-45.59888263 5.71173683 -24.70953965 -0.06470177 0 0 Z " fill="#2E80FE" transform="translate(242.3761749267578,230.7393035888672)"/>
<path d="M0 0 C6.92796252 4.27470028 11.86117746 9.40775836 15 17 C15.42779979 20.14392132 15.41371755 23.2546678 15.39440918 26.42388916 C15.40050028 27.36526065 15.40659139 28.30663213 15.41286707 29.27653003 C15.42949931 32.42698944 15.42472082 35.57704479 15.41992188 38.72753906 C15.42726216 40.98803629 15.43584827 43.24852977 15.44558716 45.50901794 C15.46781862 51.64760122 15.47073292 57.78605031 15.46883965 63.92466831 C15.46871999 69.05127109 15.47728217 74.1778454 15.48561716 79.30444026 C15.50595819 92.09378 15.50699926 104.88302118 15.49981004 117.67236766 C15.49423823 128.7651183 15.51504597 139.85763772 15.54817051 150.95033434 C15.58195337 162.35242957 15.59659599 173.75436998 15.59245348 185.15652442 C15.5903869 191.55305118 15.59585124 197.94934779 15.62034607 204.34583282 C15.6426303 210.36403124 15.64072078 216.3817493 15.62041855 222.39995003 C15.61701128 224.60496202 15.62208529 226.81000645 15.63640213 229.01497459 C15.77314806 251.64253179 15.77314806 251.64253179 8.0873642 260.10622025 C1.23393897 266.93695031 -6.23119424 268.29553834 -15.6171875 268.49609375 C-24.49620589 267.19397442 -32.00900331 263.14147143 -39.4375 258.3125 C-41.25813846 257.1573143 -43.07981149 256.00375804 -44.90234375 254.8515625 C-46.36003174 253.92585449 -46.36003174 253.92585449 -47.84716797 252.98144531 C-53.68722362 249.31117339 -59.59735757 245.7559017 -65.5 242.1875 C-72.21240936 238.12538766 -78.91962106 234.05596106 -85.59765625 229.9375 C-89.74780269 227.3785251 -93.91004792 224.84228171 -98.08984375 222.33203125 C-99.05857422 221.74873047 -100.02730469 221.16542969 -101.02539062 220.56445312 C-102.99205363 219.38128967 -104.96086248 218.20168678 -106.93164062 217.02539062 C-120.19351982 209.01838633 -120.19351982 209.01838633 -123.75 203.0625 C-124.13671875 202.43472656 -124.5234375 201.80695313 -124.921875 201.16015625 C-128.17860795 194.6348906 -128.29661161 188.80201918 -128.29052734 181.64550781 C-128.29724457 180.50977325 -128.30396179 179.3740387 -128.31088257 178.20388794 C-128.32986197 174.45358897 -128.33378692 170.703469 -128.3359375 166.953125 C-128.34236596 164.3400668 -128.34909435 161.72700933 -128.35610962 159.11395264 C-128.3688846 153.63650349 -128.37187625 148.15910266 -128.37060547 142.68164062 C-128.36940553 136.37067761 -128.39048291 130.06005738 -128.4220928 123.74918103 C-128.45150892 117.65696145 -128.45857849 111.56490496 -128.45738602 105.4726181 C-128.45974049 102.89074047 -128.46855529 100.3088601 -128.48405075 97.72702789 C-128.50373334 94.10842286 -128.49786247 90.49069059 -128.48583984 86.87207031 C-128.49707886 85.81406219 -128.50831787 84.75605408 -128.51989746 83.66598511 C-128.44156331 74.34741829 -125.83154819 66.3751933 -120 59 C-114.99389227 54.42681039 -109.43689715 51.08474313 -103.625 47.625 C-101.55652761 46.38017497 -99.48884392 45.13403862 -97.421875 43.88671875 C-95.82956055 42.92644775 -95.82956055 42.92644775 -94.20507812 41.94677734 C-89.06512188 38.82474725 -83.96923612 35.63341228 -78.875 32.4375 C-76.86985992 31.18088066 -74.86465203 29.92436952 -72.859375 28.66796875 C-71.88291016 28.05614746 -70.90644531 27.44432617 -69.90039062 26.81396484 C-62.77884278 22.36000016 -55.63312299 17.94533946 -48.48291016 13.53759766 C-45.99627856 11.99769541 -43.51898556 10.44361927 -41.04296875 8.88671875 C-15.26033801 -7.25136629 -15.26033801 -7.25136629 0 0 Z " fill="#296CFE" transform="translate(848,320)"/>
<path d="M0 0 C0.77601563 -0.02835937 1.55203125 -0.05671875 2.3515625 -0.0859375 C11.17617537 1.25941692 18.7489528 6.15167071 26.1875 10.8125 C27.18378418 11.42794678 28.18006836 12.04339355 29.20654297 12.67749023 C32.26697056 14.56986189 35.32099925 16.47227945 38.375 18.375 C40.18299478 19.49315659 41.99156379 20.61038535 43.80078125 21.7265625 C49.86013345 25.46688939 55.90954164 29.22316777 61.95898438 32.97949219 C75.71852659 41.52079292 89.53187417 49.96991389 103.375 58.375 C116.33522963 66.24402087 129.27740036 74.13894397 142.15625 82.140625 C145.75185435 84.37359866 149.35693989 86.59021432 152.96875 88.796875 C180.48874667 105.63459335 180.48874667 105.63459335 183.375 113.375 C184.82449937 120.22157147 184.98235972 126.22126872 181.375 132.375 C174.91307744 140.40344925 164.55373999 145.59447915 155.75 150.6875 C149.36464246 154.42106737 143.00177494 158.17128486 136.75 162.125 C128.12299759 167.57636215 119.38938145 172.85123766 110.65966797 178.13574219 C100.46511114 184.30828915 90.31146168 190.54503633 80.18945312 196.8359375 C70.35816293 202.94313174 60.47826105 208.96772854 50.57849121 214.96295166 C41.69610943 220.34282748 32.84364001 225.76845666 24.03320312 231.265625 C7.51622104 241.54952631 7.51622104 241.54952631 -3.625 240.375 C-9.85907399 238.55306992 -14.1455187 234.76297626 -17.625 229.375 C-22.00491567 220.2599248 -21.05486146 209.77175562 -21.02905273 199.93139648 C-21.03476166 197.96424981 -21.04172794 195.99710645 -21.04985046 194.02996826 C-21.06773626 188.70982977 -21.06662245 183.38985662 -21.06090808 178.06969714 C-21.05781052 173.62129413 -21.06391478 169.17292261 -21.06994683 164.72452408 C-21.08397454 154.22916435 -21.08244451 143.73388605 -21.07104492 133.23852539 C-21.05955694 122.42297345 -21.0736549 111.60766927 -21.1004414 100.79214996 C-21.12261037 91.49165461 -21.12923331 82.19123698 -21.12336498 72.89071709 C-21.11999813 67.34218378 -21.12239301 61.79380939 -21.13961601 56.24529839 C-21.15510278 51.0289803 -21.15111021 45.81302915 -21.13231087 40.59672546 C-21.12863025 38.68639253 -21.13171804 36.7760323 -21.14219666 34.86572456 C-21.24394039 14.7787994 -21.24394039 14.7787994 -14.625 7.03515625 C-13.965 6.50792969 -13.305 5.98070312 -12.625 5.4375 C-11.965 4.89222656 -11.305 4.34695313 -10.625 3.78515625 C-7.06256228 1.27335934 -4.39472326 0.0715753 0 0 Z " fill="#FBFBFC" transform="translate(349.625,330.625)"/>
<path d="M0 0 C2.0311533 0.00056488 4.06230702 0.00024606 6.09346008 -0.00088501 C11.58027322 -0.00145653 17.0669981 0.01026524 22.55379081 0.02426291 C28.29796632 0.03680378 34.04214408 0.03794341 39.78633118 0.04031372 C50.65160303 0.04651864 61.51683441 0.06291606 72.38208848 0.0830127 C84.75695132 0.10540249 97.13181613 0.11637287 109.5066942 0.12640357 C134.95150668 0.14728318 160.39628329 0.1824399 185.84106445 0.22705078 C185.84106445 0.55705078 185.84106445 0.88705078 185.84106445 1.22705078 C176.90399263 1.41809491 167.96643772 1.57890152 159.02856445 1.72705078 C158.30811699 1.73907532 157.58766953 1.75109985 156.84539032 1.76348877 C131.99927154 2.17223384 107.15486129 2.26803728 82.3059082 2.25830078 C81.57330678 2.25805342 80.84070535 2.25780605 80.08590388 2.25755119 C65.12879731 2.25222041 50.1717178 2.2366289 35.21464545 2.20383787 C29.4588103 2.19131103 23.70297505 2.1818568 17.9471311 2.17443514 C14.56986123 2.16982139 11.19262092 2.16318624 7.81536674 2.15174866 C4.09817733 2.13981722 0.38102303 2.1339711 -3.33618164 2.12939453 C-4.96570125 2.12164883 -4.96570125 2.12164883 -6.62814045 2.11374664 C-14.20079939 2.11320027 -21.09541387 2.25293639 -28.15893555 5.22705078 C-29.06643555 5.35080078 -29.97393555 5.47455078 -30.90893555 5.60205078 C-34.66029389 6.32346585 -37.68702375 7.72686561 -41.1081543 9.38720703 C-43.15893555 10.22705078 -43.15893555 10.22705078 -46.15893555 10.22705078 C-46.48893555 10.88705078 -46.81893555 11.54705078 -47.15893555 12.22705078 C-51.65893555 15.22705078 -51.65893555 15.22705078 -54.15893555 15.22705078 C-54.48893555 15.88705078 -54.81893555 16.54705078 -55.15893555 17.22705078 C-56.38099057 18.20069742 -57.63634659 19.13295076 -58.90893555 20.03955078 C-62.30891237 22.54575039 -65.27572679 25.12205673 -68.15893555 28.22705078 C-68.72612305 28.83548828 -69.29331055 29.44392578 -69.87768555 30.07080078 C-74.24922843 34.88690735 -77.70341409 39.54052511 -80.11206055 45.64111328 C-81.13452393 48.16675044 -82.32009978 50.50899584 -83.59643555 52.91455078 C-86.88478481 59.43287624 -89.40701729 65.84988306 -89.15893555 73.22705078 C-90.14893555 73.22705078 -91.13893555 73.22705078 -92.15893555 73.22705078 C-90.7948824 52.76625353 -79.54594235 34.63209434 -65.00268555 20.67236328 C-45.5424909 3.93873437 -25.0473894 -0.09783674 0 0 Z " fill="#18B3FE" transform="translate(246.158935546875,230.77294921875)"/>
<path d="M0 0 C0.66 0.33 1.32 0.66 2 1 C-18.2621038 16.78016379 -39.70752301 17.44952121 -64.32617188 17.43237305 C-66.95905405 17.4414034 -69.59190779 17.45160469 -72.22477722 17.46325684 C-77.86285511 17.48590469 -83.5008718 17.49790384 -89.13899231 17.50238609 C-97.29045489 17.50888226 -105.44180748 17.53187988 -113.59322542 17.55872939 C-126.82271415 17.60186504 -140.05219822 17.63190699 -153.28173828 17.65356445 C-166.1225819 17.67461398 -178.96338741 17.70192352 -191.80419922 17.73754883 C-192.99418558 17.74084707 -192.99418558 17.74084707 -194.20821208 17.74421193 C-198.18862924 17.75528258 -202.16904605 17.7664752 -206.1494627 17.77772844 C-239.09961007 17.87072605 -272.04977141 17.94241056 -305 18 C-304.67 17.34 -304.34 16.68 -304 16 C-303.45288565 15.99826375 -302.9057713 15.9965275 -302.34207773 15.99473864 C-269.90840908 15.89168801 -237.47476184 15.78357076 -205.04113236 15.66888306 C-201.14591129 15.65511365 -197.25069007 15.64138653 -193.35546875 15.62768555 C-192.58000739 15.62495724 -191.80454604 15.62222894 -191.00558585 15.61941796 C-178.45300412 15.57535506 -165.90041352 15.53471722 -153.34781629 15.49534739 C-140.46562273 15.45486749 -127.58344561 15.41070169 -114.7012763 15.36312145 C-106.75369667 15.33388305 -98.80611818 15.30751221 -90.85851711 15.28482103 C-84.76207224 15.26710693 -78.66565756 15.2442621 -72.56923676 15.21950912 C-70.06991393 15.21016306 -67.57058425 15.20247905 -65.07125092 15.19658089 C-61.65834695 15.18827812 -58.24551805 15.17398982 -54.8326416 15.15821838 C-53.84429778 15.15724028 -52.85595395 15.15626217 -51.83766031 15.15525442 C-42.66516414 15.36966005 -42.66516414 15.36966005 -34 13 C-32.29297265 12.93003986 -30.58331997 12.91559846 -28.875 12.9375 C-27.96492188 12.94652344 -27.05484375 12.95554687 -26.1171875 12.96484375 C-25.06917969 12.98224609 -25.06917969 12.98224609 -24 13 C-24 12.34 -24 11.68 -24 11 C-21.29120665 9.64560332 -18.99066732 9.93498549 -16 10 C-16 9.34 -16 8.68 -16 8 C-15.34 8 -14.68 8 -14 8 C-13.67 7.34 -13.34 6.68 -13 6 C-12.34 6 -11.68 6 -11 6 C-9.29263328 5.23012249 -7.60736729 4.41064842 -5.9375 3.5625 C-5.03902344 3.11003906 -4.14054687 2.65757812 -3.21484375 2.19140625 C-1.08881386 1.18473083 -1.08881386 1.18473083 0 0 Z " fill="#0029FE" transform="translate(662,651)"/>
<path d="M0 0 C0.66 0.33 1.32 0.66 2 1 C-10.31643947 10.59206577 -23.56457504 15.55546496 -39 17 C-41.99609375 16.56640625 -41.99609375 16.56640625 -44 16 C-44 15.67 -44 15.34 -44 15 C-42.72125 14.855625 -41.4425 14.71125 -40.125 14.5625 C-37.74307106 14.29357254 -36.15547309 14.07773654 -34 13 C-32.29297265 12.93003986 -30.58331997 12.91559846 -28.875 12.9375 C-27.96492187 12.94652344 -27.05484375 12.95554687 -26.1171875 12.96484375 C-25.06917969 12.98224609 -25.06917969 12.98224609 -24 13 C-24 12.34 -24 11.68 -24 11 C-21.29120665 9.64560332 -18.99066732 9.93498549 -16 10 C-16 9.34 -16 8.68 -16 8 C-15.34 8 -14.68 8 -14 8 C-13.67 7.34 -13.34 6.68 -13 6 C-12.34 6 -11.68 6 -11 6 C-9.29263328 5.23012249 -7.60736729 4.41064842 -5.9375 3.5625 C-4.58978516 2.88380859 -4.58978516 2.88380859 -3.21484375 2.19140625 C-1.08881386 1.18473083 -1.08881386 1.18473083 0 0 Z " fill="#1748FE" transform="translate(662,651)"/>
<path d="M0 0 C3.41437991 1.31228836 6.63624609 2.80301712 9.875 4.5 C19.25156365 9.20215248 26.87546569 9.68742238 37 8 C37 7.34 37 6.68 37 6 C38.65 6 40.3 6 42 6 C39.37299092 9.39965881 36.08645467 10.34182766 32 11 C19.71914856 12.1737761 9.60303359 8.70613807 0 1 C0 0.67 0 0.34 0 0 Z " fill="#0F42FE" transform="translate(809,577)"/>
<path d="M0 0 C0.556875 0.7425 1.11375 1.485 1.6875 2.25 C4.73350799 5.87227977 7.47727865 8.49242622 12 10 C17.48017724 10.4215521 21.14064707 9.56720532 26 7 C27.37195574 5.70644173 28.71182656 4.37701298 30 3 C32.25 1.75 32.25 1.75 34 1 C31.59046158 6.46162042 27.32826156 9.60348056 22 12 C16.88842122 12.87667464 12.53195109 12.51065036 7.625 10.875 C4.33887351 8.52776679 2.33909917 6.30225765 0 3 C0 2.01 0 1.02 0 0 Z " fill="#0A3DFE" transform="translate(237,750)"/>
<path d="M0 0 C2.00668875 2.00668875 2.56424873 3.19230068 3.625 5.75 C5.95701346 10.58122788 9.44269114 13.29556004 14 16 C17.00778521 17.00259507 19.53820647 17.30314642 22.6875 17.5625 C23.68136719 17.64628906 24.67523438 17.73007812 25.69921875 17.81640625 C26.83810547 17.90728516 26.83810547 17.90728516 28 18 C28 18.33 28 18.66 28 19 C25.39576408 19.02697137 22.79180756 19.04682489 20.1875 19.0625 C19.44951172 19.07087891 18.71152344 19.07925781 17.95117188 19.08789062 C14.70077932 19.10259828 12.10595105 19.03531702 9 18 C7.94410931 16.36816893 6.9563874 14.69207001 6 13 C5.1311106 11.84952608 4.25574407 10.70392407 3.375 9.5625 C1.10185907 6.44973044 0.28520248 3.89776727 0 0 Z " fill="#1158FE" transform="translate(329,553)"/>
<path d="M0 0 C0.66 0.33 1.32 0.66 2 1 C1.67 1.66 1.34 2.32 1 3 C0.34 3 -0.32 3 -1 3 C-1 3.66 -1 4.32 -1 5 C-3.90600261 6.25664978 -5.79604584 7 -9 7 C-9 7.66 -9 8.32 -9 9 C-11 10.625 -11 10.625 -13 12 C-13.99 11.34 -14.98 10.68 -16 10 C-13.70912072 8.51960151 -11.41734017 7.04063324 -9.125 5.5625 C-8.47402344 5.14162109 -7.82304687 4.72074219 -7.15234375 4.28710938 C-2.2265625 1.11328125 -2.2265625 1.11328125 0 0 Z " fill="#1F62FD" transform="translate(400,545)"/>
<path d="M0 0 C1.12150295 2.81395287 1.00062999 3.99799572 0.07421875 6.9453125 C-0.38339844 7.99460937 -0.84101562 9.04390625 -1.3125 10.125 C-1.98732422 11.70667969 -1.98732422 11.70667969 -2.67578125 13.3203125 C-4 16 -4 16 -6 18 C-5.835 17.236875 -5.67 16.47375 -5.5 15.6875 C-4.90854604 12.96403764 -4.90854604 12.96403764 -5 10 C-4.22555505 8.2436695 -3.38486776 6.51587044 -2.5 4.8125 C-2.0359375 3.91144531 -1.571875 3.01039063 -1.09375 2.08203125 C-0.7328125 1.39496094 -0.371875 0.70789063 0 0 Z " fill="#1849FE" transform="translate(692,608)"/>
<path d="M0 0 C0.66 0.33 1.32 0.66 2 1 C-0.30152511 4.49831816 -1.64650244 5.86591472 -5.625 7.375 C-9 8 -9 8 -11 7 C-9.21475351 5.80286983 -7.4215972 4.61752721 -5.625 3.4375 C-4.62726563 2.77621094 -3.62953125 2.11492187 -2.6015625 1.43359375 C-1.74304688 0.96050781 -0.88453125 0.48742187 0 0 Z " fill="#216AFD" transform="translate(511,477)"/>
<path d="M0 0 C1.1875 1.5 1.1875 1.5 2 4 C1.40169493 6.09188414 0.58778839 8.02520138 -0.26171875 10.02734375 C-1.15950116 12.42618034 -1.23800216 14.46131034 -1 17 C-1.99 17 -2.98 17 -4 17 C-3.58411954 10.80481527 -2.39748106 5.73310689 0 0 Z " fill="#25B1FE" transform="translate(158,287)"/>
<path d="M0 0 C2 3 2 3 2 5 C2.66 5.33 3.32 5.66 4 6 C4 9.3 4 12.6 4 16 C0.87221365 11.8296182 0.58132409 10.69636318 0.3125 5.75 C0.24675781 4.67234375 0.18101562 3.5946875 0.11328125 2.484375 C0.07589844 1.66453125 0.03851563 0.8446875 0 0 Z " fill="#1E66FE" transform="translate(155,597)"/>
<path d="M0 0 C0.66 0.33 1.32 0.66 2 1 C-1.69833224 4.92247359 -5.42422217 8.1189547 -10 11 C-10.99 10.67 -11.98 10.34 -13 10 C-10 8 -10 8 -8.0625 7.125 C-5.57171177 5.76638824 -3.93364597 4.06255571 -2 2 C-1.34 1.34 -0.68 0.68 0 0 Z " fill="#184DFE" transform="translate(269,751)"/>
<path d="M0 0 C0 0.66 0 1.32 0 2 C-0.99 2 -1.98 2 -3 2 C-3.2475 2.639375 -3.495 3.27875 -3.75 3.9375 C-5 6 -5 6 -6.875 6.6875 C-7.57625 6.790625 -8.2775 6.89375 -9 7 C-10.11375 7.2784375 -10.11375 7.2784375 -11.25 7.5625 C-11.8275 7.706875 -12.405 7.85125 -13 8 C-9.81692689 4.43495812 -5.03655764 0 0 0 Z " fill="#1C65FD" transform="translate(526,469)"/>
<path d="M0 0 C0 3 0 3 -1 4.625 C-4.13796443 6.78235055 -7.23442808 6.69134656 -11 7 C-7.54319097 4.23455278 -3.85658398 2.15078722 0 0 Z " fill="#1A61FE" transform="translate(369,564)"/>
<path d="M0 0 C0.66 0.33 1.32 0.66 2 1 C-1.51822249 5.43601966 -5.75390186 6.52033129 -11 8 C-8.83385197 5.69125289 -6.60793392 3.94709819 -3.9375 2.25 C-2.89916016 1.57710938 -2.89916016 1.57710938 -1.83984375 0.890625 C-1.23269531 0.59671875 -0.62554687 0.3028125 0 0 Z " fill="#1964FE" transform="translate(496,486)"/>
<path d="M0 0 C1.32 0.33 2.64 0.66 4 1 C1.36 3.64 -1.28 6.28 -4 9 C-4.66 8.67 -5.32 8.34 -6 8 C-5.38125 7.4225 -4.7625 6.845 -4.125 6.25 C-2.18652947 4.19750179 -1.09985751 2.56633418 0 0 Z " fill="#1049FE" transform="translate(302,718)"/>
<path d="M0 0 C0.33 0.66 0.66 1.32 1 2 C1.66 2 2.32 2 3 2 C3 2.99 3 3.98 3 5 C3.99 5.33 4.98 5.66 6 6 C6 7.65 6 9.3 6 11 C3.34730103 8.52414762 1.31989897 6.40973899 0 3 C0 2.01 0 1.02 0 0 Z " fill="#1E64FE" transform="translate(161,619)"/>
<path d="M0 0 C1.65 0 3.3 0 5 0 C2.65408148 2.7710688 0.85223799 3.52059284 -2.6875 4.1875 C-3.49574219 4.34605469 -4.30398438 4.50460937 -5.13671875 4.66796875 C-6.05904297 4.83232422 -6.05904297 4.83232422 -7 5 C-7 4.34 -7 3.68 -7 3 C-3.535 2.505 -3.535 2.505 0 2 C0 1.34 0 0.68 0 0 Z " fill="#184CFE" transform="translate(846,583)"/>
<path d="M0 0 C0.33 0.99 0.66 1.98 1 3 C-3.455 4.485 -3.455 4.485 -8 6 C-5.51047079 3.33264727 -3.36591866 1.44253657 0 0 Z " fill="#1B64FD" transform="translate(462,507)"/>
<path d="M0 0 C0 4.38968456 -2.12805101 5.76905739 -5 9 C-5 7.33333333 -5 5.66666667 -5 4 C-4.34 4 -3.68 4 -3 4 C-3 3.34 -3 2.68 -3 2 C-2.01 1.34 -1.02 0.68 0 0 Z " fill="#1447FE" transform="translate(681,632)"/>
<path d="M0 0 C0.66 0.33 1.32 0.66 2 1 C0.12050295 4.57104439 -1.17053157 6.54744301 -5 8 C-5 7.01 -5 6.02 -5 5 C-4.01 4.67 -3.02 4.34 -2 4 C-0.79117904 1.99983534 -0.79117904 1.99983534 0 0 Z " fill="#2B5FFE" transform="translate(277,742)"/>
</svg>
